<?xml version="1.0" encoding="utf-8" standalone="no"?>
<!DOCTYPE svg PUBLIC "-//W3C//DTD SVG 1.1//EN"
  "http://www.w3.org/Graphics/SVG/1.1/DTD/svg11.dtd">
<svg xmlns:xlink="http://www.w3.org/1999/xlink" width="565.86375pt" height="346.6365pt" viewBox="0 0 565.86375 346.6365" xmlns="http://www.w3.org/2000/svg" version="1.1">
 <metadata>
  <rdf:RDF xmlns:dc="http://purl.org/dc/elements/1.1/" xmlns:cc="http://creativecommons.org/ns#" xmlns:rdf="http://www.w3.org/1999/02/22-rdf-syntax-ns#">
   <cc:Work>
    <dc:type rdf:resource="http://purl.org/dc/dcmitype/StillImage"/>
    <dc:date>2025-06-15T19:12:56.517190</dc:date>
    <dc:format>image/svg+xml</dc:format>
    <dc:creator>
     <cc:Agent>
      <dc:title>Matplotlib v3.10.0, https://matplotlib.org/</dc:title>
     </cc:Agent>
    </dc:creator>
   </cc:Work>
  </rdf:RDF>
 </metadata>
 <defs>
  <style type="text/css">*{stroke-linejoin: round; stroke-linecap: butt}</style>
 </defs>
 <g id="figure_1">
  <g id="patch_1">
   <path d="M 0 346.6365 
L 565.86375 346.6365 
L 565.86375 0 
L 0 0 
z
" style="fill: #ffffff"/>
  </g>
  <g id="axes_1">
   <g id="patch_2">
    <path d="M 46.21695 305.7672 
L 558.66375 305.7672 
L 558.66375 22.0704 
L 46.21695 22.0704 
z
" style="fill: #ffffff"/>
   </g>
   <g id="matplotlib.axis_1">
    <g id="xtick_1">
     <g id="line2d_1">
      <path d="M 69.509986 305.7672 
L 69.509986 22.0704 
" clip-path="url(#pf15fbf550c)" style="fill: none; stroke: #cccccc; stroke-width: 0.8; stroke-linecap: round"/>
     </g>
     <g id="text_1">
      <!-- 0.00 -->
      <g style="fill: #262626" transform="translate(57.753736 322.09115) scale(0.1056 -0.1056)">
       <defs>
        <path id="DejaVuSans-30" d="M 2034 4250 
Q 1547 4250 1301 3770 
Q 1056 3291 1056 2328 
Q 1056 1369 1301 889 
Q 1547 409 2034 409 
Q 2525 409 2770 889 
Q 3016 1369 3016 2328 
Q 3016 3291 2770 3770 
Q 2525 4250 2034 4250 
z
M 2034 4750 
Q 2819 4750 3233 4129 
Q 3647 3509 3647 2328 
Q 3647 1150 3233 529 
Q 2819 -91 2034 -91 
Q 1250 -91 836 529 
Q 422 1150 422 2328 
Q 422 3509 836 4129 
Q 1250 4750 2034 4750 
z
" transform="scale(0.015625)"/>
        <path id="DejaVuSans-2e" d="M 684 794 
L 1344 794 
L 1344 0 
L 684 0 
L 684 794 
z
" transform="scale(0.015625)"/>
       </defs>
       <use xlink:href="#DejaVuSans-30"/>
       <use xlink:href="#DejaVuSans-2e" transform="translate(63.623047 0)"/>
       <use xlink:href="#DejaVuSans-30" transform="translate(95.410156 0)"/>
       <use xlink:href="#DejaVuSans-30" transform="translate(159.033203 0)"/>
      </g>
     </g>
    </g>
    <g id="xtick_2">
     <g id="line2d_2">
      <path d="M 127.742577 305.7672 
L 127.742577 22.0704 
" clip-path="url(#pf15fbf550c)" style="fill: none; stroke: #cccccc; stroke-width: 0.8; stroke-linecap: round"/>
     </g>
     <g id="text_2">
      <!-- 0.25 -->
      <g style="fill: #262626" transform="translate(115.986327 322.09115) scale(0.1056 -0.1056)">
       <defs>
        <path id="DejaVuSans-32" d="M 1228 531 
L 3431 531 
L 3431 0 
L 469 0 
L 469 531 
Q 828 903 1448 1529 
Q 2069 2156 2228 2338 
Q 2531 2678 2651 2914 
Q 2772 3150 2772 3378 
Q 2772 3750 2511 3984 
Q 2250 4219 1831 4219 
Q 1534 4219 1204 4116 
Q 875 4013 500 3803 
L 500 4441 
Q 881 4594 1212 4672 
Q 1544 4750 1819 4750 
Q 2544 4750 2975 4387 
Q 3406 4025 3406 3419 
Q 3406 3131 3298 2873 
Q 3191 2616 2906 2266 
Q 2828 2175 2409 1742 
Q 1991 1309 1228 531 
z
" transform="scale(0.015625)"/>
        <path id="DejaVuSans-35" d="M 691 4666 
L 3169 4666 
L 3169 4134 
L 1269 4134 
L 1269 2991 
Q 1406 3038 1543 3061 
Q 1681 3084 1819 3084 
Q 2600 3084 3056 2656 
Q 3513 2228 3513 1497 
Q 3513 744 3044 326 
Q 2575 -91 1722 -91 
Q 1428 -91 1123 -41 
Q 819 9 494 109 
L 494 744 
Q 775 591 1075 516 
Q 1375 441 1709 441 
Q 2250 441 2565 725 
Q 2881 1009 2881 1497 
Q 2881 1984 2565 2268 
Q 2250 2553 1709 2553 
Q 1456 2553 1204 2497 
Q 953 2441 691 2322 
L 691 4666 
z
" transform="scale(0.015625)"/>
       </defs>
       <use xlink:href="#DejaVuSans-30"/>
       <use xlink:href="#DejaVuSans-2e" transform="translate(63.623047 0)"/>
       <use xlink:href="#DejaVuSans-32" transform="translate(95.410156 0)"/>
       <use xlink:href="#DejaVuSans-35" transform="translate(159.033203 0)"/>
      </g>
     </g>
    </g>
    <g id="xtick_3">
     <g id="line2d_3">
      <path d="M 185.975168 305.7672 
L 185.975168 22.0704 
" clip-path="url(#pf15fbf550c)" style="fill: none; stroke: #cccccc; stroke-width: 0.8; stroke-linecap: round"/>
     </g>
     <g id="text_3">
      <!-- 0.50 -->
      <g style="fill: #262626" transform="translate(174.218918 322.09115) scale(0.1056 -0.1056)">
       <use xlink:href="#DejaVuSans-30"/>
       <use xlink:href="#DejaVuSans-2e" transform="translate(63.623047 0)"/>
       <use xlink:href="#DejaVuSans-35" transform="translate(95.410156 0)"/>
       <use xlink:href="#DejaVuSans-30" transform="translate(159.033203 0)"/>
      </g>
     </g>
    </g>
    <g id="xtick_4">
     <g id="line2d_4">
      <path d="M 244.207759 305.7672 
L 244.207759 22.0704 
" clip-path="url(#pf15fbf550c)" style="fill: none; stroke: #cccccc; stroke-width: 0.8; stroke-linecap: round"/>
     </g>
     <g id="text_4">
      <!-- 0.75 -->
      <g style="fill: #262626" transform="translate(232.451509 322.09115) scale(0.1056 -0.1056)">
       <defs>
        <path id="DejaVuSans-37" d="M 525 4666 
L 3525 4666 
L 3525 4397 
L 1831 0 
L 1172 0 
L 2766 4134 
L 525 4134 
L 525 4666 
z
" transform="scale(0.015625)"/>
       </defs>
       <use xlink:href="#DejaVuSans-30"/>
       <use xlink:href="#DejaVuSans-2e" transform="translate(63.623047 0)"/>
       <use xlink:href="#DejaVuSans-37" transform="translate(95.410156 0)"/>
       <use xlink:href="#DejaVuSans-35" transform="translate(159.033203 0)"/>
      </g>
     </g>
    </g>
    <g id="xtick_5">
     <g id="line2d_5">
      <path d="M 302.44035 305.7672 
L 302.44035 22.0704 
" clip-path="url(#pf15fbf550c)" style="fill: none; stroke: #cccccc; stroke-width: 0.8; stroke-linecap: round"/>
     </g>
     <g id="text_5">
      <!-- 1.00 -->
      <g style="fill: #262626" transform="translate(290.6841 322.09115) scale(0.1056 -0.1056)">
       <defs>
        <path id="DejaVuSans-31" d="M 794 531 
L 1825 531 
L 1825 4091 
L 703 3866 
L 703 4441 
L 1819 4666 
L 2450 4666 
L 2450 531 
L 3481 531 
L 3481 0 
L 794 0 
L 794 531 
z
" transform="scale(0.015625)"/>
       </defs>
       <use xlink:href="#DejaVuSans-31"/>
       <use xlink:href="#DejaVuSans-2e" transform="translate(63.623047 0)"/>
       <use xlink:href="#DejaVuSans-30" transform="translate(95.410156 0)"/>
       <use xlink:href="#DejaVuSans-30" transform="translate(159.033203 0)"/>
      </g>
     </g>
    </g>
    <g id="xtick_6">
     <g id="line2d_6">
      <path d="M 360.672941 305.7672 
L 360.672941 22.0704 
" clip-path="url(#pf15fbf550c)" style="fill: none; stroke: #cccccc; stroke-width: 0.8; stroke-linecap: round"/>
     </g>
     <g id="text_6">
      <!-- 1.25 -->
      <g style="fill: #262626" transform="translate(348.916691 322.09115) scale(0.1056 -0.1056)">
       <use xlink:href="#DejaVuSans-31"/>
       <use xlink:href="#DejaVuSans-2e" transform="translate(63.623047 0)"/>
       <use xlink:href="#DejaVuSans-32" transform="translate(95.410156 0)"/>
       <use xlink:href="#DejaVuSans-35" transform="translate(159.033203 0)"/>
      </g>
     </g>
    </g>
    <g id="xtick_7">
     <g id="line2d_7">
      <path d="M 418.905532 305.7672 
L 418.905532 22.0704 
" clip-path="url(#pf15fbf550c)" style="fill: none; stroke: #cccccc; stroke-width: 0.8; stroke-linecap: round"/>
     </g>
     <g id="text_7">
      <!-- 1.50 -->
      <g style="fill: #262626" transform="translate(407.149282 322.09115) scale(0.1056 -0.1056)">
       <use xlink:href="#DejaVuSans-31"/>
       <use xlink:href="#DejaVuSans-2e" transform="translate(63.623047 0)"/>
       <use xlink:href="#DejaVuSans-35" transform="translate(95.410156 0)"/>
       <use xlink:href="#DejaVuSans-30" transform="translate(159.033203 0)"/>
      </g>
     </g>
    </g>
    <g id="xtick_8">
     <g id="line2d_8">
      <path d="M 477.138123 305.7672 
L 477.138123 22.0704 
" clip-path="url(#pf15fbf550c)" style="fill: none; stroke: #cccccc; stroke-width: 0.8; stroke-linecap: round"/>
     </g>
     <g id="text_8">
      <!-- 1.75 -->
      <g style="fill: #262626" transform="translate(465.381873 322.09115) scale(0.1056 -0.1056)">
       <use xlink:href="#DejaVuSans-31"/>
       <use xlink:href="#DejaVuSans-2e" transform="translate(63.623047 0)"/>
       <use xlink:href="#DejaVuSans-37" transform="translate(95.410156 0)"/>
       <use xlink:href="#DejaVuSans-35" transform="translate(159.033203 0)"/>
      </g>
     </g>
    </g>
    <g id="xtick_9">
     <g id="line2d_9">
      <path d="M 535.370714 305.7672 
L 535.370714 22.0704 
" clip-path="url(#pf15fbf550c)" style="fill: none; stroke: #cccccc; stroke-width: 0.8; stroke-linecap: round"/>
     </g>
     <g id="text_9">
      <!-- 2.00 -->
      <g style="fill: #262626" transform="translate(523.614464 322.09115) scale(0.1056 -0.1056)">
       <use xlink:href="#DejaVuSans-32"/>
       <use xlink:href="#DejaVuSans-2e" transform="translate(63.623047 0)"/>
       <use xlink:href="#DejaVuSans-30" transform="translate(95.410156 0)"/>
       <use xlink:href="#DejaVuSans-30" transform="translate(159.033203 0)"/>
      </g>
     </g>
    </g>
    <g id="text_10">
     <!-- $\theta / \pi$ -->
     <g style="fill: #262626" transform="translate(293.45475 337.0407) scale(0.1152 -0.1152)">
      <defs>
       <path id="DejaVuSans-Oblique-3b8" d="M 2913 2219 
L 925 2219 
Q 791 1284 928 888 
Q 1100 400 1566 400 
Q 2034 400 2391 891 
Q 2703 1322 2913 2219 
z
M 3009 2750 
Q 3094 3638 2984 3950 
Q 2813 4444 2353 4444 
Q 1875 4444 1525 3956 
Q 1250 3563 1034 2750 
L 3009 2750 
z
M 2444 4913 
Q 3194 4913 3494 4250 
Q 3794 3591 3566 2422 
Q 3341 1256 2781 594 
Q 2225 -72 1475 -72 
Q 722 -72 425 594 
Q 128 1256 353 2422 
Q 581 3591 1134 4250 
Q 1691 4913 2444 4913 
z
" transform="scale(0.015625)"/>
       <path id="DejaVuSans-2f" d="M 1625 4666 
L 2156 4666 
L 531 -594 
L 0 -594 
L 1625 4666 
z
" transform="scale(0.015625)"/>
       <path id="DejaVuSans-Oblique-3c0" d="M 584 3500 
L 3938 3500 
L 3825 2925 
L 3384 2925 
L 2966 775 
Q 2922 550 2981 450 
Q 3038 353 3209 353 
Q 3256 353 3325 363 
Q 3397 369 3419 372 
L 3338 -44 
Q 3222 -84 3103 -103 
Q 2981 -122 2866 -122 
Q 2491 -122 2388 81 
Q 2284 288 2391 838 
L 2797 2925 
L 1506 2925 
L 938 0 
L 350 0 
L 919 2925 
L 472 2925 
L 584 3500 
z
" transform="scale(0.015625)"/>
      </defs>
      <use xlink:href="#DejaVuSans-Oblique-3b8" transform="translate(0 0.234375)"/>
      <use xlink:href="#DejaVuSans-2f" transform="translate(61.181641 0.234375)"/>
      <use xlink:href="#DejaVuSans-Oblique-3c0" transform="translate(94.873047 0.234375)"/>
     </g>
    </g>
   </g>
   <g id="matplotlib.axis_2">
    <g id="ytick_1">
     <g id="line2d_10">
      <path d="M 46.21695 300.694208 
L 558.66375 300.694208 
" clip-path="url(#pf15fbf550c)" style="fill: none; stroke: #cccccc; stroke-width: 0.8; stroke-linecap: round"/>
     </g>
     <g id="text_11">
      <!-- −3 -->
      <g style="fill: #262626" transform="translate(22.3492 304.706183) scale(0.1056 -0.1056)">
       <defs>
        <path id="DejaVuSans-2212" d="M 678 2272 
L 4684 2272 
L 4684 1741 
L 678 1741 
L 678 2272 
z
" transform="scale(0.015625)"/>
        <path id="DejaVuSans-33" d="M 2597 2516 
Q 3050 2419 3304 2112 
Q 3559 1806 3559 1356 
Q 3559 666 3084 287 
Q 2609 -91 1734 -91 
Q 1441 -91 1130 -33 
Q 819 25 488 141 
L 488 750 
Q 750 597 1062 519 
Q 1375 441 1716 441 
Q 2309 441 2620 675 
Q 2931 909 2931 1356 
Q 2931 1769 2642 2001 
Q 2353 2234 1838 2234 
L 1294 2234 
L 1294 2753 
L 1863 2753 
Q 2328 2753 2575 2939 
Q 2822 3125 2822 3475 
Q 2822 3834 2567 4026 
Q 2313 4219 1838 4219 
Q 1578 4219 1281 4162 
Q 984 4106 628 3988 
L 628 4550 
Q 988 4650 1302 4700 
Q 1616 4750 1894 4750 
Q 2613 4750 3031 4423 
Q 3450 4097 3450 3541 
Q 3450 3153 3228 2886 
Q 3006 2619 2597 2516 
z
" transform="scale(0.015625)"/>
       </defs>
       <use xlink:href="#DejaVuSans-2212"/>
       <use xlink:href="#DejaVuSans-33" transform="translate(83.789062 0)"/>
      </g>
     </g>
    </g>
    <g id="ytick_2">
     <g id="line2d_11">
      <path d="M 46.21695 255.102405 
L 558.66375 255.102405 
" clip-path="url(#pf15fbf550c)" style="fill: none; stroke: #cccccc; stroke-width: 0.8; stroke-linecap: round"/>
     </g>
     <g id="text_12">
      <!-- −2 -->
      <g style="fill: #262626" transform="translate(22.3492 259.11438) scale(0.1056 -0.1056)">
       <use xlink:href="#DejaVuSans-2212"/>
       <use xlink:href="#DejaVuSans-32" transform="translate(83.789062 0)"/>
      </g>
     </g>
    </g>
    <g id="ytick_3">
     <g id="line2d_12">
      <path d="M 46.21695 209.510603 
L 558.66375 209.510603 
" clip-path="url(#pf15fbf550c)" style="fill: none; stroke: #cccccc; stroke-width: 0.8; stroke-linecap: round"/>
     </g>
     <g id="text_13">
      <!-- −1 -->
      <g style="fill: #262626" transform="translate(22.3492 213.522578) scale(0.1056 -0.1056)">
       <use xlink:href="#DejaVuSans-2212"/>
       <use xlink:href="#DejaVuSans-31" transform="translate(83.789062 0)"/>
      </g>
     </g>
    </g>
    <g id="ytick_4">
     <g id="line2d_13">
      <path d="M 46.21695 163.9188 
L 558.66375 163.9188 
" clip-path="url(#pf15fbf550c)" style="fill: none; stroke: #cccccc; stroke-width: 0.8; stroke-linecap: round"/>
     </g>
     <g id="text_14">
      <!-- 0 -->
      <g style="fill: #262626" transform="translate(31.19815 167.930775) scale(0.1056 -0.1056)">
       <use xlink:href="#DejaVuSans-30"/>
      </g>
     </g>
    </g>
    <g id="ytick_5">
     <g id="line2d_14">
      <path d="M 46.21695 118.326997 
L 558.66375 118.326997 
" clip-path="url(#pf15fbf550c)" style="fill: none; stroke: #cccccc; stroke-width: 0.8; stroke-linecap: round"/>
     </g>
     <g id="text_15">
      <!-- 1 -->
      <g style="fill: #262626" transform="translate(31.19815 122.338972) scale(0.1056 -0.1056)">
       <use xlink:href="#DejaVuSans-31"/>
      </g>
     </g>
    </g>
    <g id="ytick_6">
     <g id="line2d_15">
      <path d="M 46.21695 72.735195 
L 558.66375 72.735195 
" clip-path="url(#pf15fbf550c)" style="fill: none; stroke: #cccccc; stroke-width: 0.8; stroke-linecap: round"/>
     </g>
     <g id="text_16">
      <!-- 2 -->
      <g style="fill: #262626" transform="translate(31.19815 76.74717) scale(0.1056 -0.1056)">
       <use xlink:href="#DejaVuSans-32"/>
      </g>
     </g>
    </g>
    <g id="ytick_7">
     <g id="line2d_16">
      <path d="M 46.21695 27.143392 
L 558.66375 27.143392 
" clip-path="url(#pf15fbf550c)" style="fill: none; stroke: #cccccc; stroke-width: 0.8; stroke-linecap: round"/>
     </g>
     <g id="text_17">
      <!-- 3 -->
      <g style="fill: #262626" transform="translate(31.19815 31.155367) scale(0.1056 -0.1056)">
       <use xlink:href="#DejaVuSans-33"/>
      </g>
     </g>
    </g>
    <g id="text_18">
     <!-- CHSH witness -->
     <g style="fill: #262626" transform="translate(15.9534 203.8563) rotate(-90) scale(0.1152 -0.1152)">
      <defs>
       <path id="DejaVuSans-43" d="M 4122 4306 
L 4122 3641 
Q 3803 3938 3442 4084 
Q 3081 4231 2675 4231 
Q 1875 4231 1450 3742 
Q 1025 3253 1025 2328 
Q 1025 1406 1450 917 
Q 1875 428 2675 428 
Q 3081 428 3442 575 
Q 3803 722 4122 1019 
L 4122 359 
Q 3791 134 3420 21 
Q 3050 -91 2638 -91 
Q 1578 -91 968 557 
Q 359 1206 359 2328 
Q 359 3453 968 4101 
Q 1578 4750 2638 4750 
Q 3056 4750 3426 4639 
Q 3797 4528 4122 4306 
z
" transform="scale(0.015625)"/>
       <path id="DejaVuSans-48" d="M 628 4666 
L 1259 4666 
L 1259 2753 
L 3553 2753 
L 3553 4666 
L 4184 4666 
L 4184 0 
L 3553 0 
L 3553 2222 
L 1259 2222 
L 1259 0 
L 628 0 
L 628 4666 
z
" transform="scale(0.015625)"/>
       <path id="DejaVuSans-53" d="M 3425 4513 
L 3425 3897 
Q 3066 4069 2747 4153 
Q 2428 4238 2131 4238 
Q 1616 4238 1336 4038 
Q 1056 3838 1056 3469 
Q 1056 3159 1242 3001 
Q 1428 2844 1947 2747 
L 2328 2669 
Q 3034 2534 3370 2195 
Q 3706 1856 3706 1288 
Q 3706 609 3251 259 
Q 2797 -91 1919 -91 
Q 1588 -91 1214 -16 
Q 841 59 441 206 
L 441 856 
Q 825 641 1194 531 
Q 1563 422 1919 422 
Q 2459 422 2753 634 
Q 3047 847 3047 1241 
Q 3047 1584 2836 1778 
Q 2625 1972 2144 2069 
L 1759 2144 
Q 1053 2284 737 2584 
Q 422 2884 422 3419 
Q 422 4038 858 4394 
Q 1294 4750 2059 4750 
Q 2388 4750 2728 4690 
Q 3069 4631 3425 4513 
z
" transform="scale(0.015625)"/>
       <path id="DejaVuSans-20" transform="scale(0.015625)"/>
       <path id="DejaVuSans-77" d="M 269 3500 
L 844 3500 
L 1563 769 
L 2278 3500 
L 2956 3500 
L 3675 769 
L 4391 3500 
L 4966 3500 
L 4050 0 
L 3372 0 
L 2619 2869 
L 1863 0 
L 1184 0 
L 269 3500 
z
" transform="scale(0.015625)"/>
       <path id="DejaVuSans-69" d="M 603 3500 
L 1178 3500 
L 1178 0 
L 603 0 
L 603 3500 
z
M 603 4863 
L 1178 4863 
L 1178 4134 
L 603 4134 
L 603 4863 
z
" transform="scale(0.015625)"/>
       <path id="DejaVuSans-74" d="M 1172 4494 
L 1172 3500 
L 2356 3500 
L 2356 3053 
L 1172 3053 
L 1172 1153 
Q 1172 725 1289 603 
Q 1406 481 1766 481 
L 2356 481 
L 2356 0 
L 1766 0 
Q 1100 0 847 248 
Q 594 497 594 1153 
L 594 3053 
L 172 3053 
L 172 3500 
L 594 3500 
L 594 4494 
L 1172 4494 
z
" transform="scale(0.015625)"/>
       <path id="DejaVuSans-6e" d="M 3513 2113 
L 3513 0 
L 2938 0 
L 2938 2094 
Q 2938 2591 2744 2837 
Q 2550 3084 2163 3084 
Q 1697 3084 1428 2787 
Q 1159 2491 1159 1978 
L 1159 0 
L 581 0 
L 581 3500 
L 1159 3500 
L 1159 2956 
Q 1366 3272 1645 3428 
Q 1925 3584 2291 3584 
Q 2894 3584 3203 3211 
Q 3513 2838 3513 2113 
z
" transform="scale(0.015625)"/>
       <path id="DejaVuSans-65" d="M 3597 1894 
L 3597 1613 
L 953 1613 
Q 991 1019 1311 708 
Q 1631 397 2203 397 
Q 2534 397 2845 478 
Q 3156 559 3463 722 
L 3463 178 
Q 3153 47 2828 -22 
Q 2503 -91 2169 -91 
Q 1331 -91 842 396 
Q 353 884 353 1716 
Q 353 2575 817 3079 
Q 1281 3584 2069 3584 
Q 2775 3584 3186 3129 
Q 3597 2675 3597 1894 
z
M 3022 2063 
Q 3016 2534 2758 2815 
Q 2500 3097 2075 3097 
Q 1594 3097 1305 2825 
Q 1016 2553 972 2059 
L 3022 2063 
z
" transform="scale(0.015625)"/>
       <path id="DejaVuSans-73" d="M 2834 3397 
L 2834 2853 
Q 2591 2978 2328 3040 
Q 2066 3103 1784 3103 
Q 1356 3103 1142 2972 
Q 928 2841 928 2578 
Q 928 2378 1081 2264 
Q 1234 2150 1697 2047 
L 1894 2003 
Q 2506 1872 2764 1633 
Q 3022 1394 3022 966 
Q 3022 478 2636 193 
Q 2250 -91 1575 -91 
Q 1294 -91 989 -36 
Q 684 19 347 128 
L 347 722 
Q 666 556 975 473 
Q 1284 391 1588 391 
Q 1994 391 2212 530 
Q 2431 669 2431 922 
Q 2431 1156 2273 1281 
Q 2116 1406 1581 1522 
L 1381 1569 
Q 847 1681 609 1914 
Q 372 2147 372 2553 
Q 372 3047 722 3315 
Q 1072 3584 1716 3584 
Q 2034 3584 2315 3537 
Q 2597 3491 2834 3397 
z
" transform="scale(0.015625)"/>
      </defs>
      <use xlink:href="#DejaVuSans-43"/>
      <use xlink:href="#DejaVuSans-48" transform="translate(69.824219 0)"/>
      <use xlink:href="#DejaVuSans-53" transform="translate(145.019531 0)"/>
      <use xlink:href="#DejaVuSans-48" transform="translate(208.496094 0)"/>
      <use xlink:href="#DejaVuSans-20" transform="translate(283.691406 0)"/>
      <use xlink:href="#DejaVuSans-77" transform="translate(315.478516 0)"/>
      <use xlink:href="#DejaVuSans-69" transform="translate(397.265625 0)"/>
      <use xlink:href="#DejaVuSans-74" transform="translate(425.048828 0)"/>
      <use xlink:href="#DejaVuSans-6e" transform="translate(464.257812 0)"/>
      <use xlink:href="#DejaVuSans-65" transform="translate(527.636719 0)"/>
      <use xlink:href="#DejaVuSans-73" transform="translate(589.160156 0)"/>
      <use xlink:href="#DejaVuSans-73" transform="translate(641.259766 0)"/>
     </g>
    </g>
   </g>
   <g id="FillBetweenPolyCollection_1"/>
   <g id="FillBetweenPolyCollection_2"/>
   <g id="FillBetweenPolyCollection_3"/>
   <g id="FillBetweenPolyCollection_4">
    <defs>
     <path id="m24253d3eb4" d="M 69.509986 -311.670791 
L 69.509986 -273.901305 
L 85.574149 -273.901305 
L 101.638312 -273.901305 
L 117.702475 -273.901305 
L 133.766638 -273.901305 
L 149.830801 -273.901305 
L 165.894964 -273.901305 
L 181.959127 -273.901305 
L 198.02329 -273.901305 
L 214.087453 -273.901305 
L 230.151616 -273.901305 
L 246.215779 -273.901305 
L 262.279942 -273.901305 
L 278.344105 -273.901305 
L 294.408268 -273.901305 
L 310.472432 -273.901305 
L 326.536595 -273.901305 
L 342.600758 -273.901305 
L 358.664921 -273.901305 
L 374.729084 -273.901305 
L 390.793247 -273.901305 
L 406.85741 -273.901305 
L 422.921573 -273.901305 
L 438.985736 -273.901305 
L 455.049899 -273.901305 
L 471.114062 -273.901305 
L 487.178225 -273.901305 
L 503.242388 -273.901305 
L 519.306551 -273.901305 
L 535.370714 -273.901305 
L 535.370714 -311.670791 
L 535.370714 -311.670791 
L 519.306551 -311.670791 
L 503.242388 -311.670791 
L 487.178225 -311.670791 
L 471.114062 -311.670791 
L 455.049899 -311.670791 
L 438.985736 -311.670791 
L 422.921573 -311.670791 
L 406.85741 -311.670791 
L 390.793247 -311.670791 
L 374.729084 -311.670791 
L 358.664921 -311.670791 
L 342.600758 -311.670791 
L 326.536595 -311.670791 
L 310.472432 -311.670791 
L 294.408268 -311.670791 
L 278.344105 -311.670791 
L 262.279942 -311.670791 
L 246.215779 -311.670791 
L 230.151616 -311.670791 
L 214.087453 -311.670791 
L 198.02329 -311.670791 
L 181.959127 -311.670791 
L 165.894964 -311.670791 
L 149.830801 -311.670791 
L 133.766638 -311.670791 
L 117.702475 -311.670791 
L 101.638312 -311.670791 
L 85.574149 -311.670791 
L 69.509986 -311.670791 
z
" style="stroke: #bcdff5; stroke-opacity: 0.3; stroke-width: 0.8"/>
    </defs>
    <g clip-path="url(#pf15fbf550c)">
     <use xlink:href="#m24253d3eb4" x="0" y="346.6365" style="fill: #bcdff5; fill-opacity: 0.3; stroke: #bcdff5; stroke-opacity: 0.3; stroke-width: 0.8"/>
    </g>
   </g>
   <g id="FillBetweenPolyCollection_5">
    <defs>
     <path id="mabdedd9f12" d="M 69.509986 -53.764609 
L 69.509986 -91.534095 
L 85.574149 -91.534095 
L 101.638312 -91.534095 
L 117.702475 -91.534095 
L 133.766638 -91.534095 
L 149.830801 -91.534095 
L 165.894964 -91.534095 
L 181.959127 -91.534095 
L 198.02329 -91.534095 
L 214.087453 -91.534095 
L 230.151616 -91.534095 
L 246.215779 -91.534095 
L 262.279942 -91.534095 
L 278.344105 -91.534095 
L 294.408268 -91.534095 
L 310.472432 -91.534095 
L 326.536595 -91.534095 
L 342.600758 -91.534095 
L 358.664921 -91.534095 
L 374.729084 -91.534095 
L 390.793247 -91.534095 
L 406.85741 -91.534095 
L 422.921573 -91.534095 
L 438.985736 -91.534095 
L 455.049899 -91.534095 
L 471.114062 -91.534095 
L 487.178225 -91.534095 
L 503.242388 -91.534095 
L 519.306551 -91.534095 
L 535.370714 -91.534095 
L 535.370714 -53.764609 
L 535.370714 -53.764609 
L 519.306551 -53.764609 
L 503.242388 -53.764609 
L 487.178225 -53.764609 
L 471.114062 -53.764609 
L 455.049899 -53.764609 
L 438.985736 -53.764609 
L 422.921573 -53.764609 
L 406.85741 -53.764609 
L 390.793247 -53.764609 
L 374.729084 -53.764609 
L 358.664921 -53.764609 
L 342.600758 -53.764609 
L 326.536595 -53.764609 
L 310.472432 -53.764609 
L 294.408268 -53.764609 
L 278.344105 -53.764609 
L 262.279942 -53.764609 
L 246.215779 -53.764609 
L 230.151616 -53.764609 
L 214.087453 -53.764609 
L 198.02329 -53.764609 
L 181.959127 -53.764609 
L 165.894964 -53.764609 
L 149.830801 -53.764609 
L 133.766638 -53.764609 
L 117.702475 -53.764609 
L 101.638312 -53.764609 
L 85.574149 -53.764609 
L 69.509986 -53.764609 
z
" style="stroke: #bcdff5; stroke-opacity: 0.3; stroke-width: 0.8"/>
    </defs>
    <g clip-path="url(#pf15fbf550c)">
     <use xlink:href="#mabdedd9f12" x="0" y="346.6365" style="fill: #bcdff5; fill-opacity: 0.3; stroke: #bcdff5; stroke-opacity: 0.3; stroke-width: 0.8"/>
    </g>
   </g>
   <g id="line2d_17">
    <path d="M 69.509986 84.144885 
L 85.574149 103.244012 
L 101.638312 125.030293 
L 117.702475 148.956632 
L 133.766638 173.108192 
L 149.830801 196.620561 
L 165.894964 219.404381 
L 181.959127 238.719611 
L 198.02329 255.147996 
L 214.087453 267.350976 
L 230.151616 274.293626 
L 246.215779 276.289616 
L 262.279942 272.700665 
L 278.344105 264.372949 
L 294.408268 251.594607 
L 310.472432 234.112149 
L 326.536595 213.897858 
L 342.600758 191.005531 
L 358.664921 167.556078 
L 374.729084 142.529164 
L 390.793247 119.6186 
L 406.85741 98.197962 
L 422.921573 80.280563 
L 438.985736 66.020501 
L 455.049899 56.361519 
L 471.114062 51.821532 
L 487.178225 52.747037 
L 503.242388 58.853542 
L 519.306551 69.155362 
L 535.370714 84.236068 
" clip-path="url(#pf15fbf550c)" style="fill: none; stroke: #22e339; stroke-width: 2; stroke-linecap: round"/>
    <defs>
     <path id="md6e2030eed" d="M 0 2.5 
C 0.663008 2.5 1.29895 2.236584 1.767767 1.767767 
C 2.236584 1.29895 2.5 0.663008 2.5 0 
C 2.5 -0.663008 2.236584 -1.29895 1.767767 -1.767767 
C 1.29895 -2.236584 0.663008 -2.5 0 -2.5 
C -0.663008 -2.5 -1.29895 -2.236584 -1.767767 -1.767767 
C -2.236584 -1.29895 -2.5 -0.663008 -2.5 0 
C -2.5 0.663008 -2.236584 1.29895 -1.767767 1.767767 
C -1.29895 2.236584 -0.663008 2.5 0 2.5 
z
" style="stroke: #ffffff; stroke-width: 0.75"/>
    </defs>
    <g clip-path="url(#pf15fbf550c)">
     <use xlink:href="#md6e2030eed" x="69.509986" y="84.144885" style="fill: #22e339; stroke: #ffffff; stroke-width: 0.75"/>
     <use xlink:href="#md6e2030eed" x="85.574149" y="103.244012" style="fill: #22e339; stroke: #ffffff; stroke-width: 0.75"/>
     <use xlink:href="#md6e2030eed" x="101.638312" y="125.030293" style="fill: #22e339; stroke: #ffffff; stroke-width: 0.75"/>
     <use xlink:href="#md6e2030eed" x="117.702475" y="148.956632" style="fill: #22e339; stroke: #ffffff; stroke-width: 0.75"/>
     <use xlink:href="#md6e2030eed" x="133.766638" y="173.108192" style="fill: #22e339; stroke: #ffffff; stroke-width: 0.75"/>
     <use xlink:href="#md6e2030eed" x="149.830801" y="196.620561" style="fill: #22e339; stroke: #ffffff; stroke-width: 0.75"/>
     <use xlink:href="#md6e2030eed" x="165.894964" y="219.404381" style="fill: #22e339; stroke: #ffffff; stroke-width: 0.75"/>
     <use xlink:href="#md6e2030eed" x="181.959127" y="238.719611" style="fill: #22e339; stroke: #ffffff; stroke-width: 0.75"/>
     <use xlink:href="#md6e2030eed" x="198.02329" y="255.147996" style="fill: #22e339; stroke: #ffffff; stroke-width: 0.75"/>
     <use xlink:href="#md6e2030eed" x="214.087453" y="267.350976" style="fill: #22e339; stroke: #ffffff; stroke-width: 0.75"/>
     <use xlink:href="#md6e2030eed" x="230.151616" y="274.293626" style="fill: #22e339; stroke: #ffffff; stroke-width: 0.75"/>
     <use xlink:href="#md6e2030eed" x="246.215779" y="276.289616" style="fill: #22e339; stroke: #ffffff; stroke-width: 0.75"/>
     <use xlink:href="#md6e2030eed" x="262.279942" y="272.700665" style="fill: #22e339; stroke: #ffffff; stroke-width: 0.75"/>
     <use xlink:href="#md6e2030eed" x="278.344105" y="264.372949" style="fill: #22e339; stroke: #ffffff; stroke-width: 0.75"/>
     <use xlink:href="#md6e2030eed" x="294.408268" y="251.594607" style="fill: #22e339; stroke: #ffffff; stroke-width: 0.75"/>
     <use xlink:href="#md6e2030eed" x="310.472432" y="234.112149" style="fill: #22e339; stroke: #ffffff; stroke-width: 0.75"/>
     <use xlink:href="#md6e2030eed" x="326.536595" y="213.897858" style="fill: #22e339; stroke: #ffffff; stroke-width: 0.75"/>
     <use xlink:href="#md6e2030eed" x="342.600758" y="191.005531" style="fill: #22e339; stroke: #ffffff; stroke-width: 0.75"/>
     <use xlink:href="#md6e2030eed" x="358.664921" y="167.556078" style="fill: #22e339; stroke: #ffffff; stroke-width: 0.75"/>
     <use xlink:href="#md6e2030eed" x="374.729084" y="142.529164" style="fill: #22e339; stroke: #ffffff; stroke-width: 0.75"/>
     <use xlink:href="#md6e2030eed" x="390.793247" y="119.6186" style="fill: #22e339; stroke: #ffffff; stroke-width: 0.75"/>
     <use xlink:href="#md6e2030eed" x="406.85741" y="98.197962" style="fill: #22e339; stroke: #ffffff; stroke-width: 0.75"/>
     <use xlink:href="#md6e2030eed" x="422.921573" y="80.280563" style="fill: #22e339; stroke: #ffffff; stroke-width: 0.75"/>
     <use xlink:href="#md6e2030eed" x="438.985736" y="66.020501" style="fill: #22e339; stroke: #ffffff; stroke-width: 0.75"/>
     <use xlink:href="#md6e2030eed" x="455.049899" y="56.361519" style="fill: #22e339; stroke: #ffffff; stroke-width: 0.75"/>
     <use xlink:href="#md6e2030eed" x="471.114062" y="51.821532" style="fill: #22e339; stroke: #ffffff; stroke-width: 0.75"/>
     <use xlink:href="#md6e2030eed" x="487.178225" y="52.747037" style="fill: #22e339; stroke: #ffffff; stroke-width: 0.75"/>
     <use xlink:href="#md6e2030eed" x="503.242388" y="58.853542" style="fill: #22e339; stroke: #ffffff; stroke-width: 0.75"/>
     <use xlink:href="#md6e2030eed" x="519.306551" y="69.155362" style="fill: #22e339; stroke: #ffffff; stroke-width: 0.75"/>
     <use xlink:href="#md6e2030eed" x="535.370714" y="84.236068" style="fill: #22e339; stroke: #ffffff; stroke-width: 0.75"/>
    </g>
   </g>
   <g id="line2d_18">
    <path d="M 69.509986 84.347311 
L 85.574149 69.357788 
L 101.638312 57.984571 
L 117.702475 52.741566 
L 133.766638 51.721231 
L 149.830801 56.584005 
L 165.894964 65.930231 
L 181.959127 80.222206 
L 198.02329 98.463304 
L 214.087453 119.432588 
L 230.151616 142.575667 
L 246.215779 166.782848 
L 262.279942 190.951733 
L 278.344105 213.828559 
L 294.408268 234.000906 
L 310.472432 251.497953 
L 326.536595 264.608201 
L 342.600758 273.028011 
L 358.664921 276.289616 
L 374.729084 274.732215 
L 390.793247 267.410245 
L 406.85741 255.034018 
L 422.921573 239.250294 
L 438.985736 219.593129 
L 455.049899 196.903227 
L 471.114062 172.988742 
L 487.178225 148.835359 
L 503.242388 124.859782 
L 519.306551 103.450997 
L 535.370714 83.940636 
" clip-path="url(#pf15fbf550c)" style="fill: none; stroke: #2291d6; stroke-width: 2; stroke-linecap: round"/>
    <defs>
     <path id="mc9a57cca5a" d="M -2.5 2.5 
L 2.5 2.5 
L 2.5 -2.5 
L -2.5 -2.5 
z
" style="stroke: #ffffff; stroke-width: 0.75; stroke-linejoin: miter"/>
    </defs>
    <g clip-path="url(#pf15fbf550c)">
     <use xlink:href="#mc9a57cca5a" x="69.509986" y="84.347311" style="fill: #2291d6; stroke: #ffffff; stroke-width: 0.75; stroke-linejoin: miter"/>
     <use xlink:href="#mc9a57cca5a" x="85.574149" y="69.357788" style="fill: #2291d6; stroke: #ffffff; stroke-width: 0.75; stroke-linejoin: miter"/>
     <use xlink:href="#mc9a57cca5a" x="101.638312" y="57.984571" style="fill: #2291d6; stroke: #ffffff; stroke-width: 0.75; stroke-linejoin: miter"/>
     <use xlink:href="#mc9a57cca5a" x="117.702475" y="52.741566" style="fill: #2291d6; stroke: #ffffff; stroke-width: 0.75; stroke-linejoin: miter"/>
     <use xlink:href="#mc9a57cca5a" x="133.766638" y="51.721231" style="fill: #2291d6; stroke: #ffffff; stroke-width: 0.75; stroke-linejoin: miter"/>
     <use xlink:href="#mc9a57cca5a" x="149.830801" y="56.584005" style="fill: #2291d6; stroke: #ffffff; stroke-width: 0.75; stroke-linejoin: miter"/>
     <use xlink:href="#mc9a57cca5a" x="165.894964" y="65.930231" style="fill: #2291d6; stroke: #ffffff; stroke-width: 0.75; stroke-linejoin: miter"/>
     <use xlink:href="#mc9a57cca5a" x="181.959127" y="80.222206" style="fill: #2291d6; stroke: #ffffff; stroke-width: 0.75; stroke-linejoin: miter"/>
     <use xlink:href="#mc9a57cca5a" x="198.02329" y="98.463304" style="fill: #2291d6; stroke: #ffffff; stroke-width: 0.75; stroke-linejoin: miter"/>
     <use xlink:href="#mc9a57cca5a" x="214.087453" y="119.432588" style="fill: #2291d6; stroke: #ffffff; stroke-width: 0.75; stroke-linejoin: miter"/>
     <use xlink:href="#mc9a57cca5a" x="230.151616" y="142.575667" style="fill: #2291d6; stroke: #ffffff; stroke-width: 0.75; stroke-linejoin: miter"/>
     <use xlink:href="#mc9a57cca5a" x="246.215779" y="166.782848" style="fill: #2291d6; stroke: #ffffff; stroke-width: 0.75; stroke-linejoin: miter"/>
     <use xlink:href="#mc9a57cca5a" x="262.279942" y="190.951733" style="fill: #2291d6; stroke: #ffffff; stroke-width: 0.75; stroke-linejoin: miter"/>
     <use xlink:href="#mc9a57cca5a" x="278.344105" y="213.828559" style="fill: #2291d6; stroke: #ffffff; stroke-width: 0.75; stroke-linejoin: miter"/>
     <use xlink:href="#mc9a57cca5a" x="294.408268" y="234.000906" style="fill: #2291d6; stroke: #ffffff; stroke-width: 0.75; stroke-linejoin: miter"/>
     <use xlink:href="#mc9a57cca5a" x="310.472432" y="251.497953" style="fill: #2291d6; stroke: #ffffff; stroke-width: 0.75; stroke-linejoin: miter"/>
     <use xlink:href="#mc9a57cca5a" x="326.536595" y="264.608201" style="fill: #2291d6; stroke: #ffffff; stroke-width: 0.75; stroke-linejoin: miter"/>
     <use xlink:href="#mc9a57cca5a" x="342.600758" y="273.028011" style="fill: #2291d6; stroke: #ffffff; stroke-width: 0.75; stroke-linejoin: miter"/>
     <use xlink:href="#mc9a57cca5a" x="358.664921" y="276.289616" style="fill: #2291d6; stroke: #ffffff; stroke-width: 0.75; stroke-linejoin: miter"/>
     <use xlink:href="#mc9a57cca5a" x="374.729084" y="274.732215" style="fill: #2291d6; stroke: #ffffff; stroke-width: 0.75; stroke-linejoin: miter"/>
     <use xlink:href="#mc9a57cca5a" x="390.793247" y="267.410245" style="fill: #2291d6; stroke: #ffffff; stroke-width: 0.75; stroke-linejoin: miter"/>
     <use xlink:href="#mc9a57cca5a" x="406.85741" y="255.034018" style="fill: #2291d6; stroke: #ffffff; stroke-width: 0.75; stroke-linejoin: miter"/>
     <use xlink:href="#mc9a57cca5a" x="422.921573" y="239.250294" style="fill: #2291d6; stroke: #ffffff; stroke-width: 0.75; stroke-linejoin: miter"/>
     <use xlink:href="#mc9a57cca5a" x="438.985736" y="219.593129" style="fill: #2291d6; stroke: #ffffff; stroke-width: 0.75; stroke-linejoin: miter"/>
     <use xlink:href="#mc9a57cca5a" x="455.049899" y="196.903227" style="fill: #2291d6; stroke: #ffffff; stroke-width: 0.75; stroke-linejoin: miter"/>
     <use xlink:href="#mc9a57cca5a" x="471.114062" y="172.988742" style="fill: #2291d6; stroke: #ffffff; stroke-width: 0.75; stroke-linejoin: miter"/>
     <use xlink:href="#mc9a57cca5a" x="487.178225" y="148.835359" style="fill: #2291d6; stroke: #ffffff; stroke-width: 0.75; stroke-linejoin: miter"/>
     <use xlink:href="#mc9a57cca5a" x="503.242388" y="124.859782" style="fill: #2291d6; stroke: #ffffff; stroke-width: 0.75; stroke-linejoin: miter"/>
     <use xlink:href="#mc9a57cca5a" x="519.306551" y="103.450997" style="fill: #2291d6; stroke: #ffffff; stroke-width: 0.75; stroke-linejoin: miter"/>
     <use xlink:href="#mc9a57cca5a" x="535.370714" y="83.940636" style="fill: #2291d6; stroke: #ffffff; stroke-width: 0.75; stroke-linejoin: miter"/>
    </g>
   </g>
   <g id="line2d_19">
    <path d="M 69.509986 84.144885 
L 85.574149 69.357788 
L 101.638312 57.984571 
L 117.702475 52.741566 
L 133.766638 51.721231 
L 149.830801 56.584005 
L 165.894964 65.930231 
L 181.959127 80.222206 
L 198.02329 72.689604 
L 214.087453 60.486624 
L 230.151616 53.543974 
L 246.215779 51.547984 
L 262.279942 55.136935 
L 278.344105 63.464651 
L 294.408268 76.242993 
L 310.472432 76.339647 
L 326.536595 63.229399 
L 342.600758 54.809589 
L 358.664921 51.547984 
L 374.729084 53.105385 
L 390.793247 60.427355 
L 406.85741 72.803582 
L 422.921573 80.280563 
L 438.985736 66.020501 
L 455.049899 56.361519 
L 471.114062 51.821532 
L 487.178225 52.747037 
L 503.242388 58.853542 
L 519.306551 69.155362 
L 535.370714 83.940636 
" clip-path="url(#pf15fbf550c)" style="fill: none; stroke: #f2a5c0; stroke-width: 2; stroke-linecap: round"/>
    <defs>
     <path id="md9a74e9307" d="M 0 2.5 
C 0.663008 2.5 1.29895 2.236584 1.767767 1.767767 
C 2.236584 1.29895 2.5 0.663008 2.5 0 
C 2.5 -0.663008 2.236584 -1.29895 1.767767 -1.767767 
C 1.29895 -2.236584 0.663008 -2.5 0 -2.5 
C -0.663008 -2.5 -1.29895 -2.236584 -1.767767 -1.767767 
C -2.236584 -1.29895 -2.5 -0.663008 -2.5 0 
C -2.5 0.663008 -2.236584 1.29895 -1.767767 1.767767 
C -1.29895 2.236584 -0.663008 2.5 0 2.5 
z
" style="stroke: #ffffff; stroke-width: 0.75"/>
    </defs>
    <g clip-path="url(#pf15fbf550c)">
     <use xlink:href="#md9a74e9307" x="69.509986" y="84.144885" style="fill: #f2a5c0; stroke: #ffffff; stroke-width: 0.75"/>
     <use xlink:href="#md9a74e9307" x="85.574149" y="69.357788" style="fill: #f2a5c0; stroke: #ffffff; stroke-width: 0.75"/>
     <use xlink:href="#md9a74e9307" x="101.638312" y="57.984571" style="fill: #f2a5c0; stroke: #ffffff; stroke-width: 0.75"/>
     <use xlink:href="#md9a74e9307" x="117.702475" y="52.741566" style="fill: #f2a5c0; stroke: #ffffff; stroke-width: 0.75"/>
     <use xlink:href="#md9a74e9307" x="133.766638" y="51.721231" style="fill: #f2a5c0; stroke: #ffffff; stroke-width: 0.75"/>
     <use xlink:href="#md9a74e9307" x="149.830801" y="56.584005" style="fill: #f2a5c0; stroke: #ffffff; stroke-width: 0.75"/>
     <use xlink:href="#md9a74e9307" x="165.894964" y="65.930231" style="fill: #f2a5c0; stroke: #ffffff; stroke-width: 0.75"/>
     <use xlink:href="#md9a74e9307" x="181.959127" y="80.222206" style="fill: #f2a5c0; stroke: #ffffff; stroke-width: 0.75"/>
     <use xlink:href="#md9a74e9307" x="198.02329" y="72.689604" style="fill: #f2a5c0; stroke: #ffffff; stroke-width: 0.75"/>
     <use xlink:href="#md9a74e9307" x="214.087453" y="60.486624" style="fill: #f2a5c0; stroke: #ffffff; stroke-width: 0.75"/>
     <use xlink:href="#md9a74e9307" x="230.151616" y="53.543974" style="fill: #f2a5c0; stroke: #ffffff; stroke-width: 0.75"/>
     <use xlink:href="#md9a74e9307" x="246.215779" y="51.547984" style="fill: #f2a5c0; stroke: #ffffff; stroke-width: 0.75"/>
     <use xlink:href="#md9a74e9307" x="262.279942" y="55.136935" style="fill: #f2a5c0; stroke: #ffffff; stroke-width: 0.75"/>
     <use xlink:href="#md9a74e9307" x="278.344105" y="63.464651" style="fill: #f2a5c0; stroke: #ffffff; stroke-width: 0.75"/>
     <use xlink:href="#md9a74e9307" x="294.408268" y="76.242993" style="fill: #f2a5c0; stroke: #ffffff; stroke-width: 0.75"/>
     <use xlink:href="#md9a74e9307" x="310.472432" y="76.339647" style="fill: #f2a5c0; stroke: #ffffff; stroke-width: 0.75"/>
     <use xlink:href="#md9a74e9307" x="326.536595" y="63.229399" style="fill: #f2a5c0; stroke: #ffffff; stroke-width: 0.75"/>
     <use xlink:href="#md9a74e9307" x="342.600758" y="54.809589" style="fill: #f2a5c0; stroke: #ffffff; stroke-width: 0.75"/>
     <use xlink:href="#md9a74e9307" x="358.664921" y="51.547984" style="fill: #f2a5c0; stroke: #ffffff; stroke-width: 0.75"/>
     <use xlink:href="#md9a74e9307" x="374.729084" y="53.105385" style="fill: #f2a5c0; stroke: #ffffff; stroke-width: 0.75"/>
     <use xlink:href="#md9a74e9307" x="390.793247" y="60.427355" style="fill: #f2a5c0; stroke: #ffffff; stroke-width: 0.75"/>
     <use xlink:href="#md9a74e9307" x="406.85741" y="72.803582" style="fill: #f2a5c0; stroke: #ffffff; stroke-width: 0.75"/>
     <use xlink:href="#md9a74e9307" x="422.921573" y="80.280563" style="fill: #f2a5c0; stroke: #ffffff; stroke-width: 0.75"/>
     <use xlink:href="#md9a74e9307" x="438.985736" y="66.020501" style="fill: #f2a5c0; stroke: #ffffff; stroke-width: 0.75"/>
     <use xlink:href="#md9a74e9307" x="455.049899" y="56.361519" style="fill: #f2a5c0; stroke: #ffffff; stroke-width: 0.75"/>
     <use xlink:href="#md9a74e9307" x="471.114062" y="51.821532" style="fill: #f2a5c0; stroke: #ffffff; stroke-width: 0.75"/>
     <use xlink:href="#md9a74e9307" x="487.178225" y="52.747037" style="fill: #f2a5c0; stroke: #ffffff; stroke-width: 0.75"/>
     <use xlink:href="#md9a74e9307" x="503.242388" y="58.853542" style="fill: #f2a5c0; stroke: #ffffff; stroke-width: 0.75"/>
     <use xlink:href="#md9a74e9307" x="519.306551" y="69.155362" style="fill: #f2a5c0; stroke: #ffffff; stroke-width: 0.75"/>
     <use xlink:href="#md9a74e9307" x="535.370714" y="83.940636" style="fill: #f2a5c0; stroke: #ffffff; stroke-width: 0.75"/>
    </g>
   </g>
   <g id="line2d_20">
    <path d="M 46.21695 72.735195 
L 558.66375 72.735195 
" clip-path="url(#pf15fbf550c)" style="fill: none; stroke-dasharray: 3.7,1.6; stroke-dashoffset: 0; stroke: #808080"/>
   </g>
   <g id="line2d_21">
    <path d="M 46.21695 255.102405 
L 558.66375 255.102405 
" clip-path="url(#pf15fbf550c)" style="fill: none; stroke-dasharray: 3.7,1.6; stroke-dashoffset: 0; stroke: #808080"/>
   </g>
   <g id="line2d_22">
    <path d="M 46.21695 34.965709 
L 558.66375 34.965709 
" clip-path="url(#pf15fbf550c)" style="fill: none; stroke-dasharray: 6.4,1.6,1,1.6; stroke-dashoffset: 0; stroke: #808080"/>
   </g>
   <g id="line2d_23">
    <path d="M 46.21695 292.871891 
L 558.66375 292.871891 
" clip-path="url(#pf15fbf550c)" style="fill: none; stroke-dasharray: 6.4,1.6,1,1.6; stroke-dashoffset: 0; stroke: #808080"/>
   </g>
   <g id="patch_3">
    <path d="M 46.21695 305.7672 
L 46.21695 22.0704 
" style="fill: none; stroke: #cccccc; stroke-linejoin: miter; stroke-linecap: square"/>
   </g>
   <g id="patch_4">
    <path d="M 558.66375 305.7672 
L 558.66375 22.0704 
" style="fill: none; stroke: #cccccc; stroke-linejoin: miter; stroke-linecap: square"/>
   </g>
   <g id="patch_5">
    <path d="M 46.21695 305.7672 
L 558.66375 305.7672 
" style="fill: none; stroke: #cccccc; stroke-linejoin: miter; stroke-linecap: square"/>
   </g>
   <g id="patch_6">
    <path d="M 46.21695 22.0704 
L 558.66375 22.0704 
" style="fill: none; stroke: #cccccc; stroke-linejoin: miter; stroke-linecap: square"/>
   </g>
   <g id="text_19">
    <!-- $S_M$ = 2.4647 -->
    <g style="fill: #262626" transform="translate(267.500795 54.498474) scale(0.1 -0.1)">
     <defs>
      <path id="DejaVuSans-Oblique-53" d="M 3859 4513 
L 3738 3897 
Q 3422 4066 3111 4152 
Q 2800 4238 2509 4238 
Q 1944 4238 1609 3991 
Q 1275 3744 1275 3334 
Q 1275 3109 1398 2989 
Q 1522 2869 2034 2731 
L 2413 2638 
Q 3053 2472 3303 2217 
Q 3553 1963 3553 1503 
Q 3553 797 2998 353 
Q 2444 -91 1538 -91 
Q 1166 -91 791 -17 
Q 416 56 38 206 
L 166 856 
Q 513 641 861 531 
Q 1209 422 1556 422 
Q 2147 422 2503 684 
Q 2859 947 2859 1369 
Q 2859 1650 2717 1795 
Q 2575 1941 2106 2059 
L 1728 2156 
Q 1081 2325 845 2545 
Q 609 2766 609 3163 
Q 609 3859 1145 4304 
Q 1681 4750 2541 4750 
Q 2875 4750 3203 4690 
Q 3531 4631 3859 4513 
z
" transform="scale(0.015625)"/>
      <path id="DejaVuSans-Oblique-4d" d="M 1081 4666 
L 2028 4666 
L 2572 1522 
L 4378 4666 
L 5350 4666 
L 4441 0 
L 3828 0 
L 4622 4091 
L 2791 897 
L 2175 897 
L 1581 4103 
L 788 0 
L 172 0 
L 1081 4666 
z
" transform="scale(0.015625)"/>
      <path id="DejaVuSans-3d" d="M 678 2906 
L 4684 2906 
L 4684 2381 
L 678 2381 
L 678 2906 
z
M 678 1631 
L 4684 1631 
L 4684 1100 
L 678 1100 
L 678 1631 
z
" transform="scale(0.015625)"/>
      <path id="DejaVuSans-34" d="M 2419 4116 
L 825 1625 
L 2419 1625 
L 2419 4116 
z
M 2253 4666 
L 3047 4666 
L 3047 1625 
L 3713 1625 
L 3713 1100 
L 3047 1100 
L 3047 0 
L 2419 0 
L 2419 1100 
L 313 1100 
L 313 1709 
L 2253 4666 
z
" transform="scale(0.015625)"/>
      <path id="DejaVuSans-36" d="M 2113 2584 
Q 1688 2584 1439 2293 
Q 1191 2003 1191 1497 
Q 1191 994 1439 701 
Q 1688 409 2113 409 
Q 2538 409 2786 701 
Q 3034 994 3034 1497 
Q 3034 2003 2786 2293 
Q 2538 2584 2113 2584 
z
M 3366 4563 
L 3366 3988 
Q 3128 4100 2886 4159 
Q 2644 4219 2406 4219 
Q 1781 4219 1451 3797 
Q 1122 3375 1075 2522 
Q 1259 2794 1537 2939 
Q 1816 3084 2150 3084 
Q 2853 3084 3261 2657 
Q 3669 2231 3669 1497 
Q 3669 778 3244 343 
Q 2819 -91 2113 -91 
Q 1303 -91 875 529 
Q 447 1150 447 2328 
Q 447 3434 972 4092 
Q 1497 4750 2381 4750 
Q 2619 4750 2861 4703 
Q 3103 4656 3366 4563 
z
" transform="scale(0.015625)"/>
     </defs>
     <use xlink:href="#DejaVuSans-Oblique-53" transform="translate(0 0.78125)"/>
     <use xlink:href="#DejaVuSans-Oblique-4d" transform="translate(63.476562 -15.625) scale(0.7)"/>
     <use xlink:href="#DejaVuSans-20" transform="translate(126.606445 0.78125)"/>
     <use xlink:href="#DejaVuSans-3d" transform="translate(158.393555 0.78125)"/>
     <use xlink:href="#DejaVuSans-20" transform="translate(242.182617 0.78125)"/>
     <use xlink:href="#DejaVuSans-32" transform="translate(273.969727 0.78125)"/>
     <use xlink:href="#DejaVuSans-2e" transform="translate(337.592773 0.78125)"/>
     <use xlink:href="#DejaVuSans-34" transform="translate(369.379883 0.78125)"/>
     <use xlink:href="#DejaVuSans-36" transform="translate(433.00293 0.78125)"/>
     <use xlink:href="#DejaVuSans-34" transform="translate(496.625977 0.78125)"/>
     <use xlink:href="#DejaVuSans-37" transform="translate(560.249023 0.78125)"/>
    </g>
   </g>
   <g id="text_20">
    <!-- $CHSH1(\theta)$ e $CHSH2(\theta)$ — Noise simulation (FakeWashington) — ISA optimization -->
    <g style="fill: #262626" transform="translate(71.23395 16.0704) scale(0.1152 -0.1152)">
     <defs>
      <path id="DejaVuSans-Oblique-43" d="M 4447 4306 
L 4319 3641 
Q 4019 3944 3683 4091 
Q 3347 4238 2956 4238 
Q 2422 4238 2017 3981 
Q 1613 3725 1319 3200 
Q 1131 2863 1032 2486 
Q 934 2109 934 1728 
Q 934 1091 1264 756 
Q 1594 422 2222 422 
Q 2656 422 3056 561 
Q 3456 700 3834 978 
L 3688 231 
Q 3316 72 2936 -9 
Q 2556 -91 2175 -91 
Q 1278 -91 773 396 
Q 269 884 269 1753 
Q 269 2309 461 2846 
Q 653 3384 1013 3828 
Q 1394 4300 1883 4525 
Q 2372 4750 3022 4750 
Q 3422 4750 3780 4639 
Q 4138 4528 4447 4306 
z
" transform="scale(0.015625)"/>
      <path id="DejaVuSans-Oblique-48" d="M 1081 4666 
L 1716 4666 
L 1344 2753 
L 3634 2753 
L 4006 4666 
L 4641 4666 
L 3731 0 
L 3097 0 
L 3531 2222 
L 1241 2222 
L 806 0 
L 172 0 
L 1081 4666 
z
" transform="scale(0.015625)"/>
      <path id="DejaVuSans-28" d="M 1984 4856 
Q 1566 4138 1362 3434 
Q 1159 2731 1159 2009 
Q 1159 1288 1364 580 
Q 1569 -128 1984 -844 
L 1484 -844 
Q 1016 -109 783 600 
Q 550 1309 550 2009 
Q 550 2706 781 3412 
Q 1013 4119 1484 4856 
L 1984 4856 
z
" transform="scale(0.015625)"/>
      <path id="DejaVuSans-29" d="M 513 4856 
L 1013 4856 
Q 1481 4119 1714 3412 
Q 1947 2706 1947 2009 
Q 1947 1309 1714 600 
Q 1481 -109 1013 -844 
L 513 -844 
Q 928 -128 1133 580 
Q 1338 1288 1338 2009 
Q 1338 2731 1133 3434 
Q 928 4138 513 4856 
z
" transform="scale(0.015625)"/>
      <path id="DejaVuSansDisplay-2014" d="M 313 1978 
L 6088 1978 
L 6088 1528 
L 313 1528 
L 313 1978 
z
" transform="scale(0.015625)"/>
      <path id="DejaVuSans-4e" d="M 628 4666 
L 1478 4666 
L 3547 763 
L 3547 4666 
L 4159 4666 
L 4159 0 
L 3309 0 
L 1241 3903 
L 1241 0 
L 628 0 
L 628 4666 
z
" transform="scale(0.015625)"/>
      <path id="DejaVuSans-6f" d="M 1959 3097 
Q 1497 3097 1228 2736 
Q 959 2375 959 1747 
Q 959 1119 1226 758 
Q 1494 397 1959 397 
Q 2419 397 2687 759 
Q 2956 1122 2956 1747 
Q 2956 2369 2687 2733 
Q 2419 3097 1959 3097 
z
M 1959 3584 
Q 2709 3584 3137 3096 
Q 3566 2609 3566 1747 
Q 3566 888 3137 398 
Q 2709 -91 1959 -91 
Q 1206 -91 779 398 
Q 353 888 353 1747 
Q 353 2609 779 3096 
Q 1206 3584 1959 3584 
z
" transform="scale(0.015625)"/>
      <path id="DejaVuSans-6d" d="M 3328 2828 
Q 3544 3216 3844 3400 
Q 4144 3584 4550 3584 
Q 5097 3584 5394 3201 
Q 5691 2819 5691 2113 
L 5691 0 
L 5113 0 
L 5113 2094 
Q 5113 2597 4934 2840 
Q 4756 3084 4391 3084 
Q 3944 3084 3684 2787 
Q 3425 2491 3425 1978 
L 3425 0 
L 2847 0 
L 2847 2094 
Q 2847 2600 2669 2842 
Q 2491 3084 2119 3084 
Q 1678 3084 1418 2786 
Q 1159 2488 1159 1978 
L 1159 0 
L 581 0 
L 581 3500 
L 1159 3500 
L 1159 2956 
Q 1356 3278 1631 3431 
Q 1906 3584 2284 3584 
Q 2666 3584 2933 3390 
Q 3200 3197 3328 2828 
z
" transform="scale(0.015625)"/>
      <path id="DejaVuSans-75" d="M 544 1381 
L 544 3500 
L 1119 3500 
L 1119 1403 
Q 1119 906 1312 657 
Q 1506 409 1894 409 
Q 2359 409 2629 706 
Q 2900 1003 2900 1516 
L 2900 3500 
L 3475 3500 
L 3475 0 
L 2900 0 
L 2900 538 
Q 2691 219 2414 64 
Q 2138 -91 1772 -91 
Q 1169 -91 856 284 
Q 544 659 544 1381 
z
M 1991 3584 
L 1991 3584 
z
" transform="scale(0.015625)"/>
      <path id="DejaVuSans-6c" d="M 603 4863 
L 1178 4863 
L 1178 0 
L 603 0 
L 603 4863 
z
" transform="scale(0.015625)"/>
      <path id="DejaVuSans-61" d="M 2194 1759 
Q 1497 1759 1228 1600 
Q 959 1441 959 1056 
Q 959 750 1161 570 
Q 1363 391 1709 391 
Q 2188 391 2477 730 
Q 2766 1069 2766 1631 
L 2766 1759 
L 2194 1759 
z
M 3341 1997 
L 3341 0 
L 2766 0 
L 2766 531 
Q 2569 213 2275 61 
Q 1981 -91 1556 -91 
Q 1019 -91 701 211 
Q 384 513 384 1019 
Q 384 1609 779 1909 
Q 1175 2209 1959 2209 
L 2766 2209 
L 2766 2266 
Q 2766 2663 2505 2880 
Q 2244 3097 1772 3097 
Q 1472 3097 1187 3025 
Q 903 2953 641 2809 
L 641 3341 
Q 956 3463 1253 3523 
Q 1550 3584 1831 3584 
Q 2591 3584 2966 3190 
Q 3341 2797 3341 1997 
z
" transform="scale(0.015625)"/>
      <path id="DejaVuSans-46" d="M 628 4666 
L 3309 4666 
L 3309 4134 
L 1259 4134 
L 1259 2759 
L 3109 2759 
L 3109 2228 
L 1259 2228 
L 1259 0 
L 628 0 
L 628 4666 
z
" transform="scale(0.015625)"/>
      <path id="DejaVuSans-6b" d="M 581 4863 
L 1159 4863 
L 1159 1991 
L 2875 3500 
L 3609 3500 
L 1753 1863 
L 3688 0 
L 2938 0 
L 1159 1709 
L 1159 0 
L 581 0 
L 581 4863 
z
" transform="scale(0.015625)"/>
      <path id="DejaVuSans-57" d="M 213 4666 
L 850 4666 
L 1831 722 
L 2809 4666 
L 3519 4666 
L 4500 722 
L 5478 4666 
L 6119 4666 
L 4947 0 
L 4153 0 
L 3169 4050 
L 2175 0 
L 1381 0 
L 213 4666 
z
" transform="scale(0.015625)"/>
      <path id="DejaVuSans-68" d="M 3513 2113 
L 3513 0 
L 2938 0 
L 2938 2094 
Q 2938 2591 2744 2837 
Q 2550 3084 2163 3084 
Q 1697 3084 1428 2787 
Q 1159 2491 1159 1978 
L 1159 0 
L 581 0 
L 581 4863 
L 1159 4863 
L 1159 2956 
Q 1366 3272 1645 3428 
Q 1925 3584 2291 3584 
Q 2894 3584 3203 3211 
Q 3513 2838 3513 2113 
z
" transform="scale(0.015625)"/>
      <path id="DejaVuSans-67" d="M 2906 1791 
Q 2906 2416 2648 2759 
Q 2391 3103 1925 3103 
Q 1463 3103 1205 2759 
Q 947 2416 947 1791 
Q 947 1169 1205 825 
Q 1463 481 1925 481 
Q 2391 481 2648 825 
Q 2906 1169 2906 1791 
z
M 3481 434 
Q 3481 -459 3084 -895 
Q 2688 -1331 1869 -1331 
Q 1566 -1331 1297 -1286 
Q 1028 -1241 775 -1147 
L 775 -588 
Q 1028 -725 1275 -790 
Q 1522 -856 1778 -856 
Q 2344 -856 2625 -561 
Q 2906 -266 2906 331 
L 2906 616 
Q 2728 306 2450 153 
Q 2172 0 1784 0 
Q 1141 0 747 490 
Q 353 981 353 1791 
Q 353 2603 747 3093 
Q 1141 3584 1784 3584 
Q 2172 3584 2450 3431 
Q 2728 3278 2906 2969 
L 2906 3500 
L 3481 3500 
L 3481 434 
z
" transform="scale(0.015625)"/>
      <path id="DejaVuSans-49" d="M 628 4666 
L 1259 4666 
L 1259 0 
L 628 0 
L 628 4666 
z
" transform="scale(0.015625)"/>
      <path id="DejaVuSans-41" d="M 2188 4044 
L 1331 1722 
L 3047 1722 
L 2188 4044 
z
M 1831 4666 
L 2547 4666 
L 4325 0 
L 3669 0 
L 3244 1197 
L 1141 1197 
L 716 0 
L 50 0 
L 1831 4666 
z
" transform="scale(0.015625)"/>
      <path id="DejaVuSans-70" d="M 1159 525 
L 1159 -1331 
L 581 -1331 
L 581 3500 
L 1159 3500 
L 1159 2969 
Q 1341 3281 1617 3432 
Q 1894 3584 2278 3584 
Q 2916 3584 3314 3078 
Q 3713 2572 3713 1747 
Q 3713 922 3314 415 
Q 2916 -91 2278 -91 
Q 1894 -91 1617 61 
Q 1341 213 1159 525 
z
M 3116 1747 
Q 3116 2381 2855 2742 
Q 2594 3103 2138 3103 
Q 1681 3103 1420 2742 
Q 1159 2381 1159 1747 
Q 1159 1113 1420 752 
Q 1681 391 2138 391 
Q 2594 391 2855 752 
Q 3116 1113 3116 1747 
z
" transform="scale(0.015625)"/>
      <path id="DejaVuSans-7a" d="M 353 3500 
L 3084 3500 
L 3084 2975 
L 922 459 
L 3084 459 
L 3084 0 
L 275 0 
L 275 525 
L 2438 3041 
L 353 3041 
L 353 3500 
z
" transform="scale(0.015625)"/>
     </defs>
     <use xlink:href="#DejaVuSans-Oblique-43" transform="translate(0 0.234375)"/>
     <use xlink:href="#DejaVuSans-Oblique-48" transform="translate(69.824219 0.234375)"/>
     <use xlink:href="#DejaVuSans-Oblique-53" transform="translate(145.019531 0.234375)"/>
     <use xlink:href="#DejaVuSans-Oblique-48" transform="translate(208.496094 0.234375)"/>
     <use xlink:href="#DejaVuSans-31" transform="translate(283.691406 0.234375)"/>
     <use xlink:href="#DejaVuSans-28" transform="translate(347.314453 0.234375)"/>
     <use xlink:href="#DejaVuSans-Oblique-3b8" transform="translate(386.328125 0.234375)"/>
     <use xlink:href="#DejaVuSans-29" transform="translate(447.509766 0.234375)"/>
     <use xlink:href="#DejaVuSans-20" transform="translate(486.523438 0.234375)"/>
     <use xlink:href="#DejaVuSans-65" transform="translate(518.310547 0.234375)"/>
     <use xlink:href="#DejaVuSans-20" transform="translate(579.833984 0.234375)"/>
     <use xlink:href="#DejaVuSans-Oblique-43" transform="translate(611.621094 0.234375)"/>
     <use xlink:href="#DejaVuSans-Oblique-48" transform="translate(681.445312 0.234375)"/>
     <use xlink:href="#DejaVuSans-Oblique-53" transform="translate(756.640625 0.234375)"/>
     <use xlink:href="#DejaVuSans-Oblique-48" transform="translate(820.117188 0.234375)"/>
     <use xlink:href="#DejaVuSans-32" transform="translate(895.3125 0.234375)"/>
     <use xlink:href="#DejaVuSans-28" transform="translate(958.935547 0.234375)"/>
     <use xlink:href="#DejaVuSans-Oblique-3b8" transform="translate(997.949219 0.234375)"/>
     <use xlink:href="#DejaVuSans-29" transform="translate(1059.130859 0.234375)"/>
     <use xlink:href="#DejaVuSans-20" transform="translate(1098.144531 0.234375)"/>
     <use xlink:href="#DejaVuSansDisplay-2014" transform="translate(1129.931641 0.234375)"/>
     <use xlink:href="#DejaVuSans-20" transform="translate(1229.931641 0.234375)"/>
     <use xlink:href="#DejaVuSans-4e" transform="translate(1261.71875 0.234375)"/>
     <use xlink:href="#DejaVuSans-6f" transform="translate(1336.523438 0.234375)"/>
     <use xlink:href="#DejaVuSans-69" transform="translate(1397.705078 0.234375)"/>
     <use xlink:href="#DejaVuSans-73" transform="translate(1425.488281 0.234375)"/>
     <use xlink:href="#DejaVuSans-65" transform="translate(1477.587891 0.234375)"/>
     <use xlink:href="#DejaVuSans-20" transform="translate(1539.111328 0.234375)"/>
     <use xlink:href="#DejaVuSans-73" transform="translate(1570.898438 0.234375)"/>
     <use xlink:href="#DejaVuSans-69" transform="translate(1622.998047 0.234375)"/>
     <use xlink:href="#DejaVuSans-6d" transform="translate(1650.78125 0.234375)"/>
     <use xlink:href="#DejaVuSans-75" transform="translate(1748.193359 0.234375)"/>
     <use xlink:href="#DejaVuSans-6c" transform="translate(1811.572266 0.234375)"/>
     <use xlink:href="#DejaVuSans-61" transform="translate(1839.355469 0.234375)"/>
     <use xlink:href="#DejaVuSans-74" transform="translate(1900.634766 0.234375)"/>
     <use xlink:href="#DejaVuSans-69" transform="translate(1939.84375 0.234375)"/>
     <use xlink:href="#DejaVuSans-6f" transform="translate(1967.626953 0.234375)"/>
     <use xlink:href="#DejaVuSans-6e" transform="translate(2028.808594 0.234375)"/>
     <use xlink:href="#DejaVuSans-20" transform="translate(2092.1875 0.234375)"/>
     <use xlink:href="#DejaVuSans-28" transform="translate(2123.974609 0.234375)"/>
     <use xlink:href="#DejaVuSans-46" transform="translate(2162.988281 0.234375)"/>
     <use xlink:href="#DejaVuSans-61" transform="translate(2220.507812 0.234375)"/>
     <use xlink:href="#DejaVuSans-6b" transform="translate(2281.787109 0.234375)"/>
     <use xlink:href="#DejaVuSans-65" transform="translate(2339.697266 0.234375)"/>
     <use xlink:href="#DejaVuSans-57" transform="translate(2401.220703 0.234375)"/>
     <use xlink:href="#DejaVuSans-61" transform="translate(2500.097656 0.234375)"/>
     <use xlink:href="#DejaVuSans-73" transform="translate(2561.376953 0.234375)"/>
     <use xlink:href="#DejaVuSans-68" transform="translate(2613.476562 0.234375)"/>
     <use xlink:href="#DejaVuSans-69" transform="translate(2676.855469 0.234375)"/>
     <use xlink:href="#DejaVuSans-6e" transform="translate(2704.638672 0.234375)"/>
     <use xlink:href="#DejaVuSans-67" transform="translate(2768.017578 0.234375)"/>
     <use xlink:href="#DejaVuSans-74" transform="translate(2831.494141 0.234375)"/>
     <use xlink:href="#DejaVuSans-6f" transform="translate(2870.703125 0.234375)"/>
     <use xlink:href="#DejaVuSans-6e" transform="translate(2931.884766 0.234375)"/>
     <use xlink:href="#DejaVuSans-29" transform="translate(2995.263672 0.234375)"/>
     <use xlink:href="#DejaVuSans-20" transform="translate(3034.277344 0.234375)"/>
     <use xlink:href="#DejaVuSansDisplay-2014" transform="translate(3066.064453 0.234375)"/>
     <use xlink:href="#DejaVuSans-20" transform="translate(3166.064453 0.234375)"/>
     <use xlink:href="#DejaVuSans-49" transform="translate(3197.851562 0.234375)"/>
     <use xlink:href="#DejaVuSans-53" transform="translate(3227.34375 0.234375)"/>
     <use xlink:href="#DejaVuSans-41" transform="translate(3290.820312 0.234375)"/>
     <use xlink:href="#DejaVuSans-20" transform="translate(3359.228516 0.234375)"/>
     <use xlink:href="#DejaVuSans-6f" transform="translate(3391.015625 0.234375)"/>
     <use xlink:href="#DejaVuSans-70" transform="translate(3452.197266 0.234375)"/>
     <use xlink:href="#DejaVuSans-74" transform="translate(3515.673828 0.234375)"/>
     <use xlink:href="#DejaVuSans-69" transform="translate(3554.882812 0.234375)"/>
     <use xlink:href="#DejaVuSans-6d" transform="translate(3582.666016 0.234375)"/>
     <use xlink:href="#DejaVuSans-69" transform="translate(3680.078125 0.234375)"/>
     <use xlink:href="#DejaVuSans-7a" transform="translate(3707.861328 0.234375)"/>
     <use xlink:href="#DejaVuSans-61" transform="translate(3760.351562 0.234375)"/>
     <use xlink:href="#DejaVuSans-74" transform="translate(3821.630859 0.234375)"/>
     <use xlink:href="#DejaVuSans-69" transform="translate(3860.839844 0.234375)"/>
     <use xlink:href="#DejaVuSans-6f" transform="translate(3888.623047 0.234375)"/>
     <use xlink:href="#DejaVuSans-6e" transform="translate(3949.804688 0.234375)"/>
    </g>
   </g>
   <g id="legend_1">
    <g id="patch_7">
     <path d="M 252.639225 146.19843 
L 352.241475 146.19843 
Q 354.353475 146.19843 354.353475 144.08643 
L 354.353475 98.64213 
Q 354.353475 96.53013 352.241475 96.53013 
L 252.639225 96.53013 
Q 250.527225 96.53013 250.527225 98.64213 
L 250.527225 144.08643 
Q 250.527225 146.19843 252.639225 146.19843 
z
" style="fill: #ffffff; opacity: 0.8; stroke: #cccccc; stroke-width: 0.8; stroke-linejoin: miter"/>
    </g>
    <g id="line2d_24">
     <path d="M 254.751225 105.08208 
L 265.311225 105.08208 
L 275.871225 105.08208 
" style="fill: none; stroke: #22e339; stroke-width: 2; stroke-linecap: round"/>
     <g>
      <use xlink:href="#md6e2030eed" x="265.311225" y="105.08208" style="fill: #22e339; stroke: #ffffff; stroke-width: 0.75"/>
     </g>
    </g>
    <g id="text_21">
     <!-- $CHSH1$ -->
     <g style="fill: #262626" transform="translate(284.319225 108.77808) scale(0.1056 -0.1056)">
      <use xlink:href="#DejaVuSans-Oblique-43" transform="translate(0 0.78125)"/>
      <use xlink:href="#DejaVuSans-Oblique-48" transform="translate(69.824219 0.78125)"/>
      <use xlink:href="#DejaVuSans-Oblique-53" transform="translate(145.019531 0.78125)"/>
      <use xlink:href="#DejaVuSans-Oblique-48" transform="translate(208.496094 0.78125)"/>
      <use xlink:href="#DejaVuSans-31" transform="translate(283.691406 0.78125)"/>
     </g>
    </g>
    <g id="line2d_25">
     <path d="M 254.751225 120.58218 
L 265.311225 120.58218 
L 275.871225 120.58218 
" style="fill: none; stroke: #2291d6; stroke-width: 2; stroke-linecap: round"/>
     <g>
      <use xlink:href="#mc9a57cca5a" x="265.311225" y="120.58218" style="fill: #2291d6; stroke: #ffffff; stroke-width: 0.75; stroke-linejoin: miter"/>
     </g>
    </g>
    <g id="text_22">
     <!-- $CHSH2$ -->
     <g style="fill: #262626" transform="translate(284.319225 124.27818) scale(0.1056 -0.1056)">
      <use xlink:href="#DejaVuSans-Oblique-43" transform="translate(0 0.78125)"/>
      <use xlink:href="#DejaVuSans-Oblique-48" transform="translate(69.824219 0.78125)"/>
      <use xlink:href="#DejaVuSans-Oblique-53" transform="translate(145.019531 0.78125)"/>
      <use xlink:href="#DejaVuSans-Oblique-48" transform="translate(208.496094 0.78125)"/>
      <use xlink:href="#DejaVuSans-32" transform="translate(283.691406 0.78125)"/>
     </g>
    </g>
    <g id="line2d_26">
     <path d="M 254.751225 136.08228 
L 265.311225 136.08228 
L 275.871225 136.08228 
" style="fill: none; stroke: #f2a5c0; stroke-width: 2; stroke-linecap: round"/>
     <g>
      <use xlink:href="#md9a74e9307" x="265.311225" y="136.08228" style="fill: #f2a5c0; stroke: #ffffff; stroke-width: 0.75"/>
     </g>
    </g>
    <g id="text_23">
     <!-- S parameter -->
     <g style="fill: #262626" transform="translate(284.319225 139.77828) scale(0.1056 -0.1056)">
      <defs>
       <path id="DejaVuSans-72" d="M 2631 2963 
Q 2534 3019 2420 3045 
Q 2306 3072 2169 3072 
Q 1681 3072 1420 2755 
Q 1159 2438 1159 1844 
L 1159 0 
L 581 0 
L 581 3500 
L 1159 3500 
L 1159 2956 
Q 1341 3275 1631 3429 
Q 1922 3584 2338 3584 
Q 2397 3584 2469 3576 
Q 2541 3569 2628 3553 
L 2631 2963 
z
" transform="scale(0.015625)"/>
      </defs>
      <use xlink:href="#DejaVuSans-53"/>
      <use xlink:href="#DejaVuSans-20" transform="translate(63.476562 0)"/>
      <use xlink:href="#DejaVuSans-70" transform="translate(95.263672 0)"/>
      <use xlink:href="#DejaVuSans-61" transform="translate(158.740234 0)"/>
      <use xlink:href="#DejaVuSans-72" transform="translate(220.019531 0)"/>
      <use xlink:href="#DejaVuSans-61" transform="translate(261.132812 0)"/>
      <use xlink:href="#DejaVuSans-6d" transform="translate(322.412109 0)"/>
      <use xlink:href="#DejaVuSans-65" transform="translate(419.824219 0)"/>
      <use xlink:href="#DejaVuSans-74" transform="translate(481.347656 0)"/>
      <use xlink:href="#DejaVuSans-65" transform="translate(520.556641 0)"/>
      <use xlink:href="#DejaVuSans-72" transform="translate(582.080078 0)"/>
     </g>
    </g>
   </g>
  </g>
 </g>
 <defs>
  <clipPath id="pf15fbf550c">
   <rect x="46.21695" y="22.0704" width="512.4468" height="283.6968"/>
  </clipPath>
 </defs>
</svg>
