<?xml version="1.0" encoding="utf-8" standalone="no"?>
<!DOCTYPE svg PUBLIC "-//W3C//DTD SVG 1.1//EN"
  "http://www.w3.org/Graphics/SVG/1.1/DTD/svg11.dtd">
<svg xmlns:xlink="http://www.w3.org/1999/xlink" width="500.885224pt" height="134.402999pt" viewBox="0 0 500.885224 134.402999" xmlns="http://www.w3.org/2000/svg" version="1.1">
 <metadata>
  <rdf:RDF xmlns:dc="http://purl.org/dc/elements/1.1/" xmlns:cc="http://creativecommons.org/ns#" xmlns:rdf="http://www.w3.org/1999/02/22-rdf-syntax-ns#">
   <cc:Work>
    <dc:type rdf:resource="http://purl.org/dc/dcmitype/StillImage"/>
    <dc:date>2025-06-15T19:23:04.251542</dc:date>
    <dc:format>image/svg+xml</dc:format>
    <dc:creator>
     <cc:Agent>
      <dc:title>Matplotlib v3.10.0, https://matplotlib.org/</dc:title>
     </cc:Agent>
    </dc:creator>
   </cc:Work>
  </rdf:RDF>
 </metadata>
 <defs>
  <style type="text/css">*{stroke-linejoin: round; stroke-linecap: butt}</style>
 </defs>
 <g id="figure_1">
  <g id="patch_1">
   <path d="M 0 134.402999 
L 500.885224 134.402999 
L 500.885224 0 
L 0 0 
z
" style="fill: #ffffff"/>
  </g>
  <g id="axes_1">
   <g id="line2d_1">
    <path d="M 113.582429 53.0366 
L 489.049824 53.0366 
" clip-path="url(#p52b9cfc0c8)" style="fill: none; stroke: #000000; stroke-width: 2; stroke-linecap: round"/>
   </g>
   <g id="line2d_2">
    <path d="M 113.582429 99.390599 
L 489.049824 99.390599 
" clip-path="url(#p52b9cfc0c8)" style="fill: none; stroke: #000000; stroke-width: 2; stroke-linecap: round"/>
   </g>
   <g id="text_1">
    <!-- Global Phase: 7$\pi$/4 -->
    <g style="fill: #262626" transform="translate(7.2 15.9534) scale(0.1152 -0.1152)">
     <defs>
      <path id="DejaVuSans-47" d="M 3809 666 
L 3809 1919 
L 2778 1919 
L 2778 2438 
L 4434 2438 
L 4434 434 
Q 4069 175 3628 42 
Q 3188 -91 2688 -91 
Q 1594 -91 976 548 
Q 359 1188 359 2328 
Q 359 3472 976 4111 
Q 1594 4750 2688 4750 
Q 3144 4750 3555 4637 
Q 3966 4525 4313 4306 
L 4313 3634 
Q 3963 3931 3569 4081 
Q 3175 4231 2741 4231 
Q 1884 4231 1454 3753 
Q 1025 3275 1025 2328 
Q 1025 1384 1454 906 
Q 1884 428 2741 428 
Q 3075 428 3337 486 
Q 3600 544 3809 666 
z
" transform="scale(0.015625)"/>
      <path id="DejaVuSans-6c" d="M 603 4863 
L 1178 4863 
L 1178 0 
L 603 0 
L 603 4863 
z
" transform="scale(0.015625)"/>
      <path id="DejaVuSans-6f" d="M 1959 3097 
Q 1497 3097 1228 2736 
Q 959 2375 959 1747 
Q 959 1119 1226 758 
Q 1494 397 1959 397 
Q 2419 397 2687 759 
Q 2956 1122 2956 1747 
Q 2956 2369 2687 2733 
Q 2419 3097 1959 3097 
z
M 1959 3584 
Q 2709 3584 3137 3096 
Q 3566 2609 3566 1747 
Q 3566 888 3137 398 
Q 2709 -91 1959 -91 
Q 1206 -91 779 398 
Q 353 888 353 1747 
Q 353 2609 779 3096 
Q 1206 3584 1959 3584 
z
" transform="scale(0.015625)"/>
      <path id="DejaVuSans-62" d="M 3116 1747 
Q 3116 2381 2855 2742 
Q 2594 3103 2138 3103 
Q 1681 3103 1420 2742 
Q 1159 2381 1159 1747 
Q 1159 1113 1420 752 
Q 1681 391 2138 391 
Q 2594 391 2855 752 
Q 3116 1113 3116 1747 
z
M 1159 2969 
Q 1341 3281 1617 3432 
Q 1894 3584 2278 3584 
Q 2916 3584 3314 3078 
Q 3713 2572 3713 1747 
Q 3713 922 3314 415 
Q 2916 -91 2278 -91 
Q 1894 -91 1617 61 
Q 1341 213 1159 525 
L 1159 0 
L 581 0 
L 581 4863 
L 1159 4863 
L 1159 2969 
z
" transform="scale(0.015625)"/>
      <path id="DejaVuSans-61" d="M 2194 1759 
Q 1497 1759 1228 1600 
Q 959 1441 959 1056 
Q 959 750 1161 570 
Q 1363 391 1709 391 
Q 2188 391 2477 730 
Q 2766 1069 2766 1631 
L 2766 1759 
L 2194 1759 
z
M 3341 1997 
L 3341 0 
L 2766 0 
L 2766 531 
Q 2569 213 2275 61 
Q 1981 -91 1556 -91 
Q 1019 -91 701 211 
Q 384 513 384 1019 
Q 384 1609 779 1909 
Q 1175 2209 1959 2209 
L 2766 2209 
L 2766 2266 
Q 2766 2663 2505 2880 
Q 2244 3097 1772 3097 
Q 1472 3097 1187 3025 
Q 903 2953 641 2809 
L 641 3341 
Q 956 3463 1253 3523 
Q 1550 3584 1831 3584 
Q 2591 3584 2966 3190 
Q 3341 2797 3341 1997 
z
" transform="scale(0.015625)"/>
      <path id="DejaVuSans-20" transform="scale(0.015625)"/>
      <path id="DejaVuSans-50" d="M 1259 4147 
L 1259 2394 
L 2053 2394 
Q 2494 2394 2734 2622 
Q 2975 2850 2975 3272 
Q 2975 3691 2734 3919 
Q 2494 4147 2053 4147 
L 1259 4147 
z
M 628 4666 
L 2053 4666 
Q 2838 4666 3239 4311 
Q 3641 3956 3641 3272 
Q 3641 2581 3239 2228 
Q 2838 1875 2053 1875 
L 1259 1875 
L 1259 0 
L 628 0 
L 628 4666 
z
" transform="scale(0.015625)"/>
      <path id="DejaVuSans-68" d="M 3513 2113 
L 3513 0 
L 2938 0 
L 2938 2094 
Q 2938 2591 2744 2837 
Q 2550 3084 2163 3084 
Q 1697 3084 1428 2787 
Q 1159 2491 1159 1978 
L 1159 0 
L 581 0 
L 581 4863 
L 1159 4863 
L 1159 2956 
Q 1366 3272 1645 3428 
Q 1925 3584 2291 3584 
Q 2894 3584 3203 3211 
Q 3513 2838 3513 2113 
z
" transform="scale(0.015625)"/>
      <path id="DejaVuSans-73" d="M 2834 3397 
L 2834 2853 
Q 2591 2978 2328 3040 
Q 2066 3103 1784 3103 
Q 1356 3103 1142 2972 
Q 928 2841 928 2578 
Q 928 2378 1081 2264 
Q 1234 2150 1697 2047 
L 1894 2003 
Q 2506 1872 2764 1633 
Q 3022 1394 3022 966 
Q 3022 478 2636 193 
Q 2250 -91 1575 -91 
Q 1294 -91 989 -36 
Q 684 19 347 128 
L 347 722 
Q 666 556 975 473 
Q 1284 391 1588 391 
Q 1994 391 2212 530 
Q 2431 669 2431 922 
Q 2431 1156 2273 1281 
Q 2116 1406 1581 1522 
L 1381 1569 
Q 847 1681 609 1914 
Q 372 2147 372 2553 
Q 372 3047 722 3315 
Q 1072 3584 1716 3584 
Q 2034 3584 2315 3537 
Q 2597 3491 2834 3397 
z
" transform="scale(0.015625)"/>
      <path id="DejaVuSans-65" d="M 3597 1894 
L 3597 1613 
L 953 1613 
Q 991 1019 1311 708 
Q 1631 397 2203 397 
Q 2534 397 2845 478 
Q 3156 559 3463 722 
L 3463 178 
Q 3153 47 2828 -22 
Q 2503 -91 2169 -91 
Q 1331 -91 842 396 
Q 353 884 353 1716 
Q 353 2575 817 3079 
Q 1281 3584 2069 3584 
Q 2775 3584 3186 3129 
Q 3597 2675 3597 1894 
z
M 3022 2063 
Q 3016 2534 2758 2815 
Q 2500 3097 2075 3097 
Q 1594 3097 1305 2825 
Q 1016 2553 972 2059 
L 3022 2063 
z
" transform="scale(0.015625)"/>
      <path id="DejaVuSans-3a" d="M 750 794 
L 1409 794 
L 1409 0 
L 750 0 
L 750 794 
z
M 750 3309 
L 1409 3309 
L 1409 2516 
L 750 2516 
L 750 3309 
z
" transform="scale(0.015625)"/>
      <path id="DejaVuSans-37" d="M 525 4666 
L 3525 4666 
L 3525 4397 
L 1831 0 
L 1172 0 
L 2766 4134 
L 525 4134 
L 525 4666 
z
" transform="scale(0.015625)"/>
      <path id="DejaVuSans-Oblique-3c0" d="M 584 3500 
L 3938 3500 
L 3825 2925 
L 3384 2925 
L 2966 775 
Q 2922 550 2981 450 
Q 3038 353 3209 353 
Q 3256 353 3325 363 
Q 3397 369 3419 372 
L 3338 -44 
Q 3222 -84 3103 -103 
Q 2981 -122 2866 -122 
Q 2491 -122 2388 81 
Q 2284 288 2391 838 
L 2797 2925 
L 1506 2925 
L 938 0 
L 350 0 
L 919 2925 
L 472 2925 
L 584 3500 
z
" transform="scale(0.015625)"/>
      <path id="DejaVuSans-2f" d="M 1625 4666 
L 2156 4666 
L 531 -594 
L 0 -594 
L 1625 4666 
z
" transform="scale(0.015625)"/>
      <path id="DejaVuSans-34" d="M 2419 4116 
L 825 1625 
L 2419 1625 
L 2419 4116 
z
M 2253 4666 
L 3047 4666 
L 3047 1625 
L 3713 1625 
L 3713 1100 
L 3047 1100 
L 3047 0 
L 2419 0 
L 2419 1100 
L 313 1100 
L 313 1709 
L 2253 4666 
z
" transform="scale(0.015625)"/>
     </defs>
     <use xlink:href="#DejaVuSans-47" transform="translate(0 0.015625)"/>
     <use xlink:href="#DejaVuSans-6c" transform="translate(77.490234 0.015625)"/>
     <use xlink:href="#DejaVuSans-6f" transform="translate(105.273438 0.015625)"/>
     <use xlink:href="#DejaVuSans-62" transform="translate(166.455078 0.015625)"/>
     <use xlink:href="#DejaVuSans-61" transform="translate(229.931641 0.015625)"/>
     <use xlink:href="#DejaVuSans-6c" transform="translate(291.210938 0.015625)"/>
     <use xlink:href="#DejaVuSans-20" transform="translate(318.994141 0.015625)"/>
     <use xlink:href="#DejaVuSans-50" transform="translate(350.78125 0.015625)"/>
     <use xlink:href="#DejaVuSans-68" transform="translate(411.083984 0.015625)"/>
     <use xlink:href="#DejaVuSans-61" transform="translate(474.462891 0.015625)"/>
     <use xlink:href="#DejaVuSans-73" transform="translate(535.742188 0.015625)"/>
     <use xlink:href="#DejaVuSans-65" transform="translate(587.841797 0.015625)"/>
     <use xlink:href="#DejaVuSans-3a" transform="translate(649.365234 0.015625)"/>
     <use xlink:href="#DejaVuSans-20" transform="translate(683.056641 0.015625)"/>
     <use xlink:href="#DejaVuSans-37" transform="translate(714.84375 0.015625)"/>
     <use xlink:href="#DejaVuSans-Oblique-3c0" transform="translate(778.466797 0.015625)"/>
     <use xlink:href="#DejaVuSans-2f" transform="translate(838.671875 0.015625)"/>
     <use xlink:href="#DejaVuSans-34" transform="translate(872.363281 0.015625)"/>
    </g>
   </g>
   <g id="patch_2">
    <path d="M 108.947029 29.8596 
L -1049.902956 29.8596 
L -1049.902956 168.921598 
L 108.947029 168.921598 
z
" clip-path="url(#p52b9cfc0c8)" style="fill: #ffffff; stroke: #ffffff; stroke-width: 1.5; stroke-linejoin: miter"/>
   </g>
   <g id="line2d_3">
    <path d="M 277.675586 99.390599 
L 277.675586 53.0366 
" clip-path="url(#p52b9cfc0c8)" style="fill: none; stroke: #6fa4ff; stroke-width: 2; stroke-linecap: round"/>
   </g>
   <g id="patch_3">
    <path d="M 123.548538 114.455649 
L 153.678638 114.455649 
L 153.678638 84.325549 
L 123.548538 84.325549 
z
" clip-path="url(#p52b9cfc0c8)" style="fill: #bb8bff; stroke: #bb8bff; stroke-width: 1.5; stroke-linejoin: miter"/>
   </g>
   <g id="patch_4">
    <path d="M 169.902538 114.455649 
L 200.032637 114.455649 
L 200.032637 84.325549 
L 169.902538 84.325549 
z
" clip-path="url(#p52b9cfc0c8)" style="fill: #bb8bff; stroke: #bb8bff; stroke-width: 1.5; stroke-linejoin: miter"/>
   </g>
   <g id="patch_5">
    <path d="M 216.256537 114.455649 
L 246.386637 114.455649 
L 246.386637 84.325549 
L 216.256537 84.325549 
z
" clip-path="url(#p52b9cfc0c8)" style="fill: #bb8bff; stroke: #bb8bff; stroke-width: 1.5; stroke-linejoin: miter"/>
   </g>
   <g id="patch_6">
    <path d="M 277.675586 103.910114 
C 278.874176 103.910114 280.023835 103.433909 280.871366 102.586379 
C 281.718897 101.738848 282.195101 100.589188 282.195101 99.390599 
C 282.195101 98.19201 281.718897 97.04235 280.871366 96.194819 
C 280.023835 95.347289 278.874176 94.871084 277.675586 94.871084 
C 276.476997 94.871084 275.327337 95.347289 274.479807 96.194819 
C 273.632276 97.04235 273.156071 98.19201 273.156071 99.390599 
C 273.156071 100.589188 273.632276 101.738848 274.479807 102.586379 
C 275.327337 103.433909 276.476997 103.910114 277.675586 103.910114 
z
" clip-path="url(#p52b9cfc0c8)" style="fill: #6fa4ff; stroke: #6fa4ff; stroke-width: 1.5; stroke-linejoin: miter"/>
   </g>
   <g id="patch_7">
    <path d="M 277.675586 63.582134 
C 280.472295 63.582134 283.154834 62.47099 285.132406 60.493419 
C 287.109977 58.515847 288.221121 55.833308 288.221121 53.0366 
C 288.221121 50.239891 287.109977 47.557352 285.132406 45.57978 
C 283.154834 43.602209 280.472295 42.491065 277.675586 42.491065 
C 274.878878 42.491065 272.196339 43.602209 270.218767 45.57978 
C 268.241196 47.557352 267.130052 50.239891 267.130052 53.0366 
C 267.130052 55.833308 268.241196 58.515847 270.218767 60.493419 
C 272.196339 62.47099 274.878878 63.582134 277.675586 63.582134 
z
" clip-path="url(#p52b9cfc0c8)" style="fill: #6fa4ff; stroke: #6fa4ff; stroke-width: 2; stroke-linejoin: miter"/>
   </g>
   <g id="patch_8">
    <path d="M 308.964536 114.455649 
L 339.094636 114.455649 
L 339.094636 84.325549 
L 308.964536 84.325549 
z
" clip-path="url(#p52b9cfc0c8)" style="fill: #bb8bff; stroke: #bb8bff; stroke-width: 1.5; stroke-linejoin: miter"/>
   </g>
   <g id="patch_9">
    <path d="M 355.318535 114.455649 
L 385.448635 114.455649 
L 385.448635 84.325549 
L 355.318535 84.325549 
z
" clip-path="url(#p52b9cfc0c8)" style="fill: #bb8bff; stroke: #bb8bff; stroke-width: 1.5; stroke-linejoin: miter"/>
   </g>
   <g id="patch_10">
    <path d="M 401.672535 114.455649 
L 431.802634 114.455649 
L 431.802634 84.325549 
L 401.672535 84.325549 
z
" clip-path="url(#p52b9cfc0c8)" style="fill: #bb8bff; stroke: #bb8bff; stroke-width: 1.5; stroke-linejoin: miter"/>
   </g>
   <g id="patch_11">
    <path d="M 448.026534 114.455649 
L 478.156634 114.455649 
L 478.156634 84.325549 
L 448.026534 84.325549 
z
" clip-path="url(#p52b9cfc0c8)" style="fill: #bb8bff; stroke: #bb8bff; stroke-width: 1.5; stroke-linejoin: miter"/>
   </g>
   <g id="line2d_4">
    <path d="M 277.675586 59.062619 
L 277.675586 47.01058 
" clip-path="url(#p52b9cfc0c8)" style="fill: none; stroke: #ffffff; stroke-width: 2; stroke-linecap: round"/>
   </g>
   <g id="line2d_5">
    <path d="M 271.649566 53.0366 
L 283.701606 53.0366 
" clip-path="url(#p52b9cfc0c8)" style="fill: none; stroke: #ffffff; stroke-width: 2; stroke-linecap: round"/>
   </g>
   <g id="text_2">
    <g clip-path="url(#p52b9cfc0c8)">
     <!-- ${q}_{1}\;\mapsto\;{100}$ -->
     <g transform="translate(26.474129 57.487576) scale(0.1625 -0.1625)">
      <defs>
       <path id="DejaVuSans-Oblique-71" d="M 2669 525 
Q 2438 222 2123 65 
Q 1809 -91 1428 -91 
Q 897 -91 595 267 
Q 294 625 294 1253 
Q 294 1759 480 2231 
Q 666 2703 1013 3078 
Q 1238 3322 1530 3453 
Q 1822 3584 2144 3584 
Q 2531 3584 2781 3431 
Q 3031 3278 3144 2969 
L 3244 3494 
L 3822 3494 
L 2888 -1319 
L 2309 -1319 
L 2669 525 
z
M 891 1338 
Q 891 875 1084 633 
Q 1278 391 1644 391 
Q 2188 391 2572 911 
Q 2956 1431 2956 2175 
Q 2956 2625 2757 2864 
Q 2559 3103 2188 3103 
Q 1916 3103 1684 2976 
Q 1453 2850 1281 2606 
Q 1100 2350 995 2006 
Q 891 1663 891 1338 
z
" transform="scale(0.015625)"/>
       <path id="DejaVuSans-31" d="M 794 531 
L 1825 531 
L 1825 4091 
L 703 3866 
L 703 4441 
L 1819 4666 
L 2450 4666 
L 2450 531 
L 3481 531 
L 3481 0 
L 794 0 
L 794 531 
z
" transform="scale(0.015625)"/>
       <path id="DejaVuSans-21a6" d="M 4175 1741 
L 897 1741 
L 897 663 
L 366 663 
L 366 3350 
L 897 3350 
L 897 2272 
L 4175 2272 
L 3447 3000 
L 3822 3375 
L 5050 2147 
L 5050 1866 
L 3822 638 
L 3447 1013 
L 4175 1741 
z
" transform="scale(0.015625)"/>
       <path id="DejaVuSans-30" d="M 2034 4250 
Q 1547 4250 1301 3770 
Q 1056 3291 1056 2328 
Q 1056 1369 1301 889 
Q 1547 409 2034 409 
Q 2525 409 2770 889 
Q 3016 1369 3016 2328 
Q 3016 3291 2770 3770 
Q 2525 4250 2034 4250 
z
M 2034 4750 
Q 2819 4750 3233 4129 
Q 3647 3509 3647 2328 
Q 3647 1150 3233 529 
Q 2819 -91 2034 -91 
Q 1250 -91 836 529 
Q 422 1150 422 2328 
Q 422 3509 836 4129 
Q 1250 4750 2034 4750 
z
" transform="scale(0.015625)"/>
      </defs>
      <use xlink:href="#DejaVuSans-Oblique-71" transform="translate(0 0.78125)"/>
      <use xlink:href="#DejaVuSans-31" transform="translate(63.476562 -15.625) scale(0.7)"/>
      <use xlink:href="#DejaVuSans-21a6" transform="translate(157.288628 0.78125)"/>
      <use xlink:href="#DejaVuSans-31" transform="translate(287.619248 0.78125)"/>
      <use xlink:href="#DejaVuSans-30" transform="translate(351.242295 0.78125)"/>
      <use xlink:href="#DejaVuSans-30" transform="translate(414.865342 0.78125)"/>
     </g>
    </g>
   </g>
   <g id="text_3">
    <g clip-path="url(#p52b9cfc0c8)">
     <!-- ${q}_{0}\;\mapsto\;{101}$ -->
     <g transform="translate(26.474129 103.841575) scale(0.1625 -0.1625)">
      <use xlink:href="#DejaVuSans-Oblique-71" transform="translate(0 0.78125)"/>
      <use xlink:href="#DejaVuSans-30" transform="translate(63.476562 -15.625) scale(0.7)"/>
      <use xlink:href="#DejaVuSans-21a6" transform="translate(157.288628 0.78125)"/>
      <use xlink:href="#DejaVuSans-31" transform="translate(287.619248 0.78125)"/>
      <use xlink:href="#DejaVuSans-30" transform="translate(351.242295 0.78125)"/>
      <use xlink:href="#DejaVuSans-31" transform="translate(414.865342 0.78125)"/>
     </g>
    </g>
   </g>
   <g id="text_4">
    <g clip-path="url(#p52b9cfc0c8)">
     <!-- $\pi$/2 -->
     <g transform="translate(132.453588 110.637129) scale(0.08 -0.08)">
      <defs>
       <path id="DejaVuSans-32" d="M 1228 531 
L 3431 531 
L 3431 0 
L 469 0 
L 469 531 
Q 828 903 1448 1529 
Q 2069 2156 2228 2338 
Q 2531 2678 2651 2914 
Q 2772 3150 2772 3378 
Q 2772 3750 2511 3984 
Q 2250 4219 1831 4219 
Q 1534 4219 1204 4116 
Q 875 4013 500 3803 
L 500 4441 
Q 881 4594 1212 4672 
Q 1544 4750 1819 4750 
Q 2544 4750 2975 4387 
Q 3406 4025 3406 3419 
Q 3406 3131 3298 2873 
Q 3191 2616 2906 2266 
Q 2828 2175 2409 1742 
Q 1991 1309 1228 531 
z
" transform="scale(0.015625)"/>
      </defs>
      <use xlink:href="#DejaVuSans-Oblique-3c0" transform="translate(0 0.78125)"/>
      <use xlink:href="#DejaVuSans-2f" transform="translate(60.205078 0.78125)"/>
      <use xlink:href="#DejaVuSans-32" transform="translate(90.271484 0.78125)"/>
     </g>
    </g>
   </g>
   <g id="text_5">
    <g clip-path="url(#p52b9cfc0c8)">
     <!-- $\mathrm{R_Z}$ -->
     <g transform="translate(130.683588 98.458271) scale(0.13 -0.13)">
      <defs>
       <path id="DejaVuSans-52" d="M 2841 2188 
Q 3044 2119 3236 1894 
Q 3428 1669 3622 1275 
L 4263 0 
L 3584 0 
L 2988 1197 
Q 2756 1666 2539 1819 
Q 2322 1972 1947 1972 
L 1259 1972 
L 1259 0 
L 628 0 
L 628 4666 
L 2053 4666 
Q 2853 4666 3247 4331 
Q 3641 3997 3641 3322 
Q 3641 2881 3436 2590 
Q 3231 2300 2841 2188 
z
M 1259 4147 
L 1259 2491 
L 2053 2491 
Q 2509 2491 2742 2702 
Q 2975 2913 2975 3322 
Q 2975 3731 2742 3939 
Q 2509 4147 2053 4147 
L 1259 4147 
z
" transform="scale(0.015625)"/>
       <path id="DejaVuSans-5a" d="M 359 4666 
L 4025 4666 
L 4025 4184 
L 1075 531 
L 4097 531 
L 4097 0 
L 288 0 
L 288 481 
L 3238 4134 
L 359 4134 
L 359 4666 
z
" transform="scale(0.015625)"/>
      </defs>
      <use xlink:href="#DejaVuSans-52" transform="translate(0 0.09375)"/>
      <use xlink:href="#DejaVuSans-5a" transform="translate(70.439453 -16.3125) scale(0.7)"/>
     </g>
    </g>
   </g>
   <g id="text_6">
    <g clip-path="url(#p52b9cfc0c8)">
     <!-- $\mathrm{\sqrt{X}}$ -->
     <g transform="translate(174.957588 103.837005) scale(0.13 -0.13)">
      <defs>
       <path id="STIXSizeOneSym-Regular-221a" d="M 6970 9933 
L 3373 -1888 
L 3104 -1888 
L 1626 2918 
Q 1555 3149 1465 3251 
Q 1376 3354 1229 3354 
Q 1011 3354 794 3181 
L 717 3309 
L 1766 4115 
L 1926 4115 
L 3379 -602 
L 3405 -602 
L 6605 9933 
L 6970 9933 
z
" transform="scale(0.015625)"/>
       <path id="DejaVuSans-58" d="M 403 4666 
L 1081 4666 
L 2241 2931 
L 3406 4666 
L 4084 4666 
L 2584 2425 
L 4184 0 
L 3506 0 
L 2194 1984 
L 872 0 
L 191 0 
L 1856 2491 
L 403 4666 
z
" transform="scale(0.015625)"/>
      </defs>
      <use xlink:href="#STIXSizeOneSym-Regular-221a" transform="translate(0 17.09375) scale(0.563912)"/>
      <use xlink:href="#DejaVuSans-58" transform="translate(72.088364 0.84375)"/>
      <path d="M 59.588364 97.5 
L 59.588364 103.75 
L 153.094223 103.75 
L 153.094223 97.5 
L 59.588364 97.5 
z
"/>
     </g>
    </g>
   </g>
   <g id="text_7">
    <g clip-path="url(#p52b9cfc0c8)">
     <!-- $\pi$/2 -->
     <g transform="translate(225.161587 110.637129) scale(0.08 -0.08)">
      <use xlink:href="#DejaVuSans-Oblique-3c0" transform="translate(0 0.78125)"/>
      <use xlink:href="#DejaVuSans-2f" transform="translate(60.205078 0.78125)"/>
      <use xlink:href="#DejaVuSans-32" transform="translate(90.271484 0.78125)"/>
     </g>
    </g>
   </g>
   <g id="text_8">
    <g clip-path="url(#p52b9cfc0c8)">
     <!-- $\mathrm{R_Z}$ -->
     <g transform="translate(223.391587 98.458271) scale(0.13 -0.13)">
      <use xlink:href="#DejaVuSans-52" transform="translate(0 0.09375)"/>
      <use xlink:href="#DejaVuSans-5a" transform="translate(70.439453 -16.3125) scale(0.7)"/>
     </g>
    </g>
   </g>
   <g id="text_9">
    <g clip-path="url(#p52b9cfc0c8)">
     <!-- $\mathrm{\sqrt{X}}$ -->
     <g transform="translate(314.019586 103.837005) scale(0.13 -0.13)">
      <use xlink:href="#STIXSizeOneSym-Regular-221a" transform="translate(0 17.09375) scale(0.563912)"/>
      <use xlink:href="#DejaVuSans-58" transform="translate(72.088364 0.84375)"/>
      <path d="M 59.588364 97.5 
L 59.588364 103.75 
L 153.094223 103.75 
L 153.094223 97.5 
L 59.588364 97.5 
z
"/>
     </g>
    </g>
   </g>
   <g id="text_10">
    <g clip-path="url(#p52b9cfc0c8)">
     <!-- $\theta$ + $\pi$ -->
     <g transform="translate(359.623585 110.637129) scale(0.08 -0.08)">
      <defs>
       <path id="DejaVuSans-Oblique-3b8" d="M 2913 2219 
L 925 2219 
Q 791 1284 928 888 
Q 1100 400 1566 400 
Q 2034 400 2391 891 
Q 2703 1322 2913 2219 
z
M 3009 2750 
Q 3094 3638 2984 3950 
Q 2813 4444 2353 4444 
Q 1875 4444 1525 3956 
Q 1250 3563 1034 2750 
L 3009 2750 
z
M 2444 4913 
Q 3194 4913 3494 4250 
Q 3794 3591 3566 2422 
Q 3341 1256 2781 594 
Q 2225 -72 1475 -72 
Q 722 -72 425 594 
Q 128 1256 353 2422 
Q 581 3591 1134 4250 
Q 1691 4913 2444 4913 
z
" transform="scale(0.015625)"/>
       <path id="DejaVuSans-2b" d="M 2944 4013 
L 2944 2272 
L 4684 2272 
L 4684 1741 
L 2944 1741 
L 2944 0 
L 2419 0 
L 2419 1741 
L 678 1741 
L 678 2272 
L 2419 2272 
L 2419 4013 
L 2944 4013 
z
" transform="scale(0.015625)"/>
      </defs>
      <use xlink:href="#DejaVuSans-Oblique-3b8" transform="translate(0 0.234375)"/>
      <use xlink:href="#DejaVuSans-20" transform="translate(61.181641 0.234375)"/>
      <use xlink:href="#DejaVuSans-2b" transform="translate(92.96875 0.234375)"/>
      <use xlink:href="#DejaVuSans-20" transform="translate(176.757812 0.234375)"/>
      <use xlink:href="#DejaVuSans-Oblique-3c0" transform="translate(208.544922 0.234375)"/>
     </g>
    </g>
   </g>
   <g id="text_11">
    <g clip-path="url(#p52b9cfc0c8)">
     <!-- $\mathrm{R_Z}$ -->
     <g transform="translate(362.453585 98.458271) scale(0.13 -0.13)">
      <use xlink:href="#DejaVuSans-52" transform="translate(0 0.09375)"/>
      <use xlink:href="#DejaVuSans-5a" transform="translate(70.439453 -16.3125) scale(0.7)"/>
     </g>
    </g>
   </g>
   <g id="text_12">
    <g clip-path="url(#p52b9cfc0c8)">
     <!-- $\mathrm{\sqrt{X}}$ -->
     <g transform="translate(406.727585 103.837005) scale(0.13 -0.13)">
      <use xlink:href="#STIXSizeOneSym-Regular-221a" transform="translate(0 17.09375) scale(0.563912)"/>
      <use xlink:href="#DejaVuSans-58" transform="translate(72.088364 0.84375)"/>
      <path d="M 59.588364 97.5 
L 59.588364 103.75 
L 153.094223 103.75 
L 153.094223 97.5 
L 59.588364 97.5 
z
"/>
     </g>
    </g>
   </g>
   <g id="text_13">
    <g clip-path="url(#p52b9cfc0c8)">
     <!-- 3$\pi$ -->
     <g transform="translate(458.131584 110.637129) scale(0.08 -0.08)">
      <defs>
       <path id="DejaVuSans-33" d="M 2597 2516 
Q 3050 2419 3304 2112 
Q 3559 1806 3559 1356 
Q 3559 666 3084 287 
Q 2609 -91 1734 -91 
Q 1441 -91 1130 -33 
Q 819 25 488 141 
L 488 750 
Q 750 597 1062 519 
Q 1375 441 1716 441 
Q 2309 441 2620 675 
Q 2931 909 2931 1356 
Q 2931 1769 2642 2001 
Q 2353 2234 1838 2234 
L 1294 2234 
L 1294 2753 
L 1863 2753 
Q 2328 2753 2575 2939 
Q 2822 3125 2822 3475 
Q 2822 3834 2567 4026 
Q 2313 4219 1838 4219 
Q 1578 4219 1281 4162 
Q 984 4106 628 3988 
L 628 4550 
Q 988 4650 1302 4700 
Q 1616 4750 1894 4750 
Q 2613 4750 3031 4423 
Q 3450 4097 3450 3541 
Q 3450 3153 3228 2886 
Q 3006 2619 2597 2516 
z
" transform="scale(0.015625)"/>
      </defs>
      <use xlink:href="#DejaVuSans-33" transform="translate(0 0.78125)"/>
      <use xlink:href="#DejaVuSans-Oblique-3c0" transform="translate(63.623047 0.78125)"/>
     </g>
    </g>
   </g>
   <g id="text_14">
    <g clip-path="url(#p52b9cfc0c8)">
     <!-- $\mathrm{R_Z}$ -->
     <g transform="translate(455.161584 98.458271) scale(0.13 -0.13)">
      <use xlink:href="#DejaVuSans-52" transform="translate(0 0.09375)"/>
      <use xlink:href="#DejaVuSans-5a" transform="translate(70.439453 -16.3125) scale(0.7)"/>
     </g>
    </g>
   </g>
  </g>
 </g>
 <defs>
  <clipPath id="p52b9cfc0c8">
   <rect x="7.2" y="15.9534" width="486.485224" height="111.249599"/>
  </clipPath>
 </defs>
</svg>
