<?xml version="1.0" encoding="utf-8" standalone="no"?>
<!DOCTYPE svg PUBLIC "-//W3C//DTD SVG 1.1//EN"
  "http://www.w3.org/Graphics/SVG/1.1/DTD/svg11.dtd">
<svg xmlns:xlink="http://www.w3.org/1999/xlink" width="491.114032pt" height="133.248036pt" viewBox="0 0 491.114032 133.248036" xmlns="http://www.w3.org/2000/svg" version="1.1">
 <metadata>
  <rdf:RDF xmlns:dc="http://purl.org/dc/elements/1.1/" xmlns:cc="http://creativecommons.org/ns#" xmlns:rdf="http://www.w3.org/1999/02/22-rdf-syntax-ns#">
   <cc:Work>
    <dc:type rdf:resource="http://purl.org/dc/dcmitype/StillImage"/>
    <dc:date>2025-06-15T16:40:21.549351</dc:date>
    <dc:format>image/svg+xml</dc:format>
    <dc:creator>
     <cc:Agent>
      <dc:title>Matplotlib v3.10.0, https://matplotlib.org/</dc:title>
     </cc:Agent>
    </dc:creator>
   </cc:Work>
  </rdf:RDF>
 </metadata>
 <defs>
  <style type="text/css">*{stroke-linejoin: round; stroke-linecap: butt}</style>
 </defs>
 <g id="figure_1">
  <g id="patch_1">
   <path d="M 0 133.248036 
L 491.114032 133.248036 
L 491.114032 0 
L 0 0 
z
" style="fill: #ffffff"/>
  </g>
  <g id="axes_1">
   <g id="line2d_1">
    <path d="M 103.811237 51.881637 
L 479.278632 51.881637 
" clip-path="url(#pcae0d9fa1a)" style="fill: none; stroke: #000000; stroke-width: 2; stroke-linecap: square"/>
   </g>
   <g id="line2d_2">
    <path d="M 103.811237 98.235636 
L 479.278632 98.235636 
" clip-path="url(#pcae0d9fa1a)" style="fill: none; stroke: #000000; stroke-width: 2; stroke-linecap: square"/>
   </g>
   <g id="text_1">
    <!-- Global Phase: $\pi$/4 -->
    <g transform="translate(7.2 14.798437) scale(0.1 -0.1)">
     <defs>
      <path id="DejaVuSans-47" d="M 3809 666 
L 3809 1919 
L 2778 1919 
L 2778 2438 
L 4434 2438 
L 4434 434 
Q 4069 175 3628 42 
Q 3188 -91 2688 -91 
Q 1594 -91 976 548 
Q 359 1188 359 2328 
Q 359 3472 976 4111 
Q 1594 4750 2688 4750 
Q 3144 4750 3555 4637 
Q 3966 4525 4313 4306 
L 4313 3634 
Q 3963 3931 3569 4081 
Q 3175 4231 2741 4231 
Q 1884 4231 1454 3753 
Q 1025 3275 1025 2328 
Q 1025 1384 1454 906 
Q 1884 428 2741 428 
Q 3075 428 3337 486 
Q 3600 544 3809 666 
z
" transform="scale(0.015625)"/>
      <path id="DejaVuSans-6c" d="M 603 4863 
L 1178 4863 
L 1178 0 
L 603 0 
L 603 4863 
z
" transform="scale(0.015625)"/>
      <path id="DejaVuSans-6f" d="M 1959 3097 
Q 1497 3097 1228 2736 
Q 959 2375 959 1747 
Q 959 1119 1226 758 
Q 1494 397 1959 397 
Q 2419 397 2687 759 
Q 2956 1122 2956 1747 
Q 2956 2369 2687 2733 
Q 2419 3097 1959 3097 
z
M 1959 3584 
Q 2709 3584 3137 3096 
Q 3566 2609 3566 1747 
Q 3566 888 3137 398 
Q 2709 -91 1959 -91 
Q 1206 -91 779 398 
Q 353 888 353 1747 
Q 353 2609 779 3096 
Q 1206 3584 1959 3584 
z
" transform="scale(0.015625)"/>
      <path id="DejaVuSans-62" d="M 3116 1747 
Q 3116 2381 2855 2742 
Q 2594 3103 2138 3103 
Q 1681 3103 1420 2742 
Q 1159 2381 1159 1747 
Q 1159 1113 1420 752 
Q 1681 391 2138 391 
Q 2594 391 2855 752 
Q 3116 1113 3116 1747 
z
M 1159 2969 
Q 1341 3281 1617 3432 
Q 1894 3584 2278 3584 
Q 2916 3584 3314 3078 
Q 3713 2572 3713 1747 
Q 3713 922 3314 415 
Q 2916 -91 2278 -91 
Q 1894 -91 1617 61 
Q 1341 213 1159 525 
L 1159 0 
L 581 0 
L 581 4863 
L 1159 4863 
L 1159 2969 
z
" transform="scale(0.015625)"/>
      <path id="DejaVuSans-61" d="M 2194 1759 
Q 1497 1759 1228 1600 
Q 959 1441 959 1056 
Q 959 750 1161 570 
Q 1363 391 1709 391 
Q 2188 391 2477 730 
Q 2766 1069 2766 1631 
L 2766 1759 
L 2194 1759 
z
M 3341 1997 
L 3341 0 
L 2766 0 
L 2766 531 
Q 2569 213 2275 61 
Q 1981 -91 1556 -91 
Q 1019 -91 701 211 
Q 384 513 384 1019 
Q 384 1609 779 1909 
Q 1175 2209 1959 2209 
L 2766 2209 
L 2766 2266 
Q 2766 2663 2505 2880 
Q 2244 3097 1772 3097 
Q 1472 3097 1187 3025 
Q 903 2953 641 2809 
L 641 3341 
Q 956 3463 1253 3523 
Q 1550 3584 1831 3584 
Q 2591 3584 2966 3190 
Q 3341 2797 3341 1997 
z
" transform="scale(0.015625)"/>
      <path id="DejaVuSans-20" transform="scale(0.015625)"/>
      <path id="DejaVuSans-50" d="M 1259 4147 
L 1259 2394 
L 2053 2394 
Q 2494 2394 2734 2622 
Q 2975 2850 2975 3272 
Q 2975 3691 2734 3919 
Q 2494 4147 2053 4147 
L 1259 4147 
z
M 628 4666 
L 2053 4666 
Q 2838 4666 3239 4311 
Q 3641 3956 3641 3272 
Q 3641 2581 3239 2228 
Q 2838 1875 2053 1875 
L 1259 1875 
L 1259 0 
L 628 0 
L 628 4666 
z
" transform="scale(0.015625)"/>
      <path id="DejaVuSans-68" d="M 3513 2113 
L 3513 0 
L 2938 0 
L 2938 2094 
Q 2938 2591 2744 2837 
Q 2550 3084 2163 3084 
Q 1697 3084 1428 2787 
Q 1159 2491 1159 1978 
L 1159 0 
L 581 0 
L 581 4863 
L 1159 4863 
L 1159 2956 
Q 1366 3272 1645 3428 
Q 1925 3584 2291 3584 
Q 2894 3584 3203 3211 
Q 3513 2838 3513 2113 
z
" transform="scale(0.015625)"/>
      <path id="DejaVuSans-73" d="M 2834 3397 
L 2834 2853 
Q 2591 2978 2328 3040 
Q 2066 3103 1784 3103 
Q 1356 3103 1142 2972 
Q 928 2841 928 2578 
Q 928 2378 1081 2264 
Q 1234 2150 1697 2047 
L 1894 2003 
Q 2506 1872 2764 1633 
Q 3022 1394 3022 966 
Q 3022 478 2636 193 
Q 2250 -91 1575 -91 
Q 1294 -91 989 -36 
Q 684 19 347 128 
L 347 722 
Q 666 556 975 473 
Q 1284 391 1588 391 
Q 1994 391 2212 530 
Q 2431 669 2431 922 
Q 2431 1156 2273 1281 
Q 2116 1406 1581 1522 
L 1381 1569 
Q 847 1681 609 1914 
Q 372 2147 372 2553 
Q 372 3047 722 3315 
Q 1072 3584 1716 3584 
Q 2034 3584 2315 3537 
Q 2597 3491 2834 3397 
z
" transform="scale(0.015625)"/>
      <path id="DejaVuSans-65" d="M 3597 1894 
L 3597 1613 
L 953 1613 
Q 991 1019 1311 708 
Q 1631 397 2203 397 
Q 2534 397 2845 478 
Q 3156 559 3463 722 
L 3463 178 
Q 3153 47 2828 -22 
Q 2503 -91 2169 -91 
Q 1331 -91 842 396 
Q 353 884 353 1716 
Q 353 2575 817 3079 
Q 1281 3584 2069 3584 
Q 2775 3584 3186 3129 
Q 3597 2675 3597 1894 
z
M 3022 2063 
Q 3016 2534 2758 2815 
Q 2500 3097 2075 3097 
Q 1594 3097 1305 2825 
Q 1016 2553 972 2059 
L 3022 2063 
z
" transform="scale(0.015625)"/>
      <path id="DejaVuSans-3a" d="M 750 794 
L 1409 794 
L 1409 0 
L 750 0 
L 750 794 
z
M 750 3309 
L 1409 3309 
L 1409 2516 
L 750 2516 
L 750 3309 
z
" transform="scale(0.015625)"/>
      <path id="DejaVuSans-Oblique-3c0" d="M 584 3500 
L 3938 3500 
L 3825 2925 
L 3384 2925 
L 2966 775 
Q 2922 550 2981 450 
Q 3038 353 3209 353 
Q 3256 353 3325 363 
Q 3397 369 3419 372 
L 3338 -44 
Q 3222 -84 3103 -103 
Q 2981 -122 2866 -122 
Q 2491 -122 2388 81 
Q 2284 288 2391 838 
L 2797 2925 
L 1506 2925 
L 938 0 
L 350 0 
L 919 2925 
L 472 2925 
L 584 3500 
z
" transform="scale(0.015625)"/>
      <path id="DejaVuSans-2f" d="M 1625 4666 
L 2156 4666 
L 531 -594 
L 0 -594 
L 1625 4666 
z
" transform="scale(0.015625)"/>
      <path id="DejaVuSans-34" d="M 2419 4116 
L 825 1625 
L 2419 1625 
L 2419 4116 
z
M 2253 4666 
L 3047 4666 
L 3047 1625 
L 3713 1625 
L 3713 1100 
L 3047 1100 
L 3047 0 
L 2419 0 
L 2419 1100 
L 313 1100 
L 313 1709 
L 2253 4666 
z
" transform="scale(0.015625)"/>
     </defs>
     <use xlink:href="#DejaVuSans-47" transform="translate(0 0.015625)"/>
     <use xlink:href="#DejaVuSans-6c" transform="translate(77.490234 0.015625)"/>
     <use xlink:href="#DejaVuSans-6f" transform="translate(105.273438 0.015625)"/>
     <use xlink:href="#DejaVuSans-62" transform="translate(166.455078 0.015625)"/>
     <use xlink:href="#DejaVuSans-61" transform="translate(229.931641 0.015625)"/>
     <use xlink:href="#DejaVuSans-6c" transform="translate(291.210938 0.015625)"/>
     <use xlink:href="#DejaVuSans-20" transform="translate(318.994141 0.015625)"/>
     <use xlink:href="#DejaVuSans-50" transform="translate(350.78125 0.015625)"/>
     <use xlink:href="#DejaVuSans-68" transform="translate(411.083984 0.015625)"/>
     <use xlink:href="#DejaVuSans-61" transform="translate(474.462891 0.015625)"/>
     <use xlink:href="#DejaVuSans-73" transform="translate(535.742188 0.015625)"/>
     <use xlink:href="#DejaVuSans-65" transform="translate(587.841797 0.015625)"/>
     <use xlink:href="#DejaVuSans-3a" transform="translate(649.365234 0.015625)"/>
     <use xlink:href="#DejaVuSans-20" transform="translate(683.056641 0.015625)"/>
     <use xlink:href="#DejaVuSans-Oblique-3c0" transform="translate(714.84375 0.015625)"/>
     <use xlink:href="#DejaVuSans-2f" transform="translate(775.048828 0.015625)"/>
     <use xlink:href="#DejaVuSans-34" transform="translate(808.740234 0.015625)"/>
    </g>
   </g>
   <g id="patch_2">
    <path d="M 99.175837 28.704637 
L -1059.674147 28.704637 
L -1059.674147 167.766635 
L 99.175837 167.766635 
z
" clip-path="url(#pcae0d9fa1a)" style="fill: #ffffff; stroke: #ffffff; stroke-width: 1.5; stroke-linejoin: miter"/>
   </g>
   <g id="line2d_3">
    <path d="M 267.904395 98.235636 
L 267.904395 51.881637 
" clip-path="url(#pcae0d9fa1a)" style="fill: none; stroke: #6fa4ff; stroke-width: 2; stroke-linecap: square"/>
   </g>
   <g id="line2d_4">
    <path d="M 267.904395 98.235636 
L 267.904395 51.881637 
" clip-path="url(#pcae0d9fa1a)" style="fill: none; stroke: #6fa4ff; stroke-width: 2; stroke-linecap: square"/>
   </g>
   <g id="patch_3">
    <path d="M 113.777347 66.946687 
L 143.907447 66.946687 
L 143.907447 36.816587 
L 113.777347 36.816587 
z
" clip-path="url(#pcae0d9fa1a)" style="fill: #bb8bff; stroke: #bb8bff; stroke-width: 1.5; stroke-linejoin: miter"/>
   </g>
   <g id="patch_4">
    <path d="M 113.777347 113.300686 
L 143.907447 113.300686 
L 143.907447 83.170587 
L 113.777347 83.170587 
z
" clip-path="url(#pcae0d9fa1a)" style="fill: #bb8bff; stroke: #bb8bff; stroke-width: 1.5; stroke-linejoin: miter"/>
   </g>
   <g id="patch_5">
    <path d="M 160.131347 66.946687 
L 190.261446 66.946687 
L 190.261446 36.816587 
L 160.131347 36.816587 
z
" clip-path="url(#pcae0d9fa1a)" style="fill: #bb8bff; stroke: #bb8bff; stroke-width: 1.5; stroke-linejoin: miter"/>
   </g>
   <g id="patch_6">
    <path d="M 160.131347 113.300686 
L 190.261446 113.300686 
L 190.261446 83.170587 
L 160.131347 83.170587 
z
" clip-path="url(#pcae0d9fa1a)" style="fill: #bb8bff; stroke: #bb8bff; stroke-width: 1.5; stroke-linejoin: miter"/>
   </g>
   <g id="patch_7">
    <path d="M 206.485346 66.946687 
L 236.615446 66.946687 
L 236.615446 36.816587 
L 206.485346 36.816587 
z
" clip-path="url(#pcae0d9fa1a)" style="fill: #bb8bff; stroke: #bb8bff; stroke-width: 1.5; stroke-linejoin: miter"/>
   </g>
   <g id="patch_8">
    <path d="M 206.485346 113.300686 
L 236.615446 113.300686 
L 236.615446 83.170587 
L 206.485346 83.170587 
z
" clip-path="url(#pcae0d9fa1a)" style="fill: #bb8bff; stroke: #bb8bff; stroke-width: 1.5; stroke-linejoin: miter"/>
   </g>
   <g id="patch_9">
    <path d="M 267.904395 102.755151 
C 269.102984 102.755151 270.252644 102.278947 271.100175 101.431416 
C 271.947705 100.583885 272.42391 99.434226 272.42391 98.235636 
C 272.42391 97.037047 271.947705 95.887387 271.100175 95.039857 
C 270.252644 94.192326 269.102984 93.716121 267.904395 93.716121 
C 266.705806 93.716121 265.556146 94.192326 264.708615 95.039857 
C 263.861085 95.887387 263.38488 97.037047 263.38488 98.235636 
C 263.38488 99.434226 263.861085 100.583885 264.708615 101.431416 
C 265.556146 102.278947 266.705806 102.755151 267.904395 102.755151 
z
" clip-path="url(#pcae0d9fa1a)" style="fill: #6fa4ff; stroke: #6fa4ff; stroke-width: 1.5; stroke-linejoin: miter"/>
   </g>
   <g id="patch_10">
    <path d="M 267.904395 56.401152 
C 269.102984 56.401152 270.252644 55.924947 271.100175 55.077417 
C 271.947705 54.229886 272.42391 53.080226 272.42391 51.881637 
C 272.42391 50.683048 271.947705 49.533388 271.100175 48.685857 
C 270.252644 47.838327 269.102984 47.362122 267.904395 47.362122 
C 266.705806 47.362122 265.556146 47.838327 264.708615 48.685857 
C 263.861085 49.533388 263.38488 50.683048 263.38488 51.881637 
C 263.38488 53.080226 263.861085 54.229886 264.708615 55.077417 
C 265.556146 55.924947 266.705806 56.401152 267.904395 56.401152 
z
" clip-path="url(#pcae0d9fa1a)" style="fill: #6fa4ff; stroke: #6fa4ff; stroke-width: 1.5; stroke-linejoin: miter"/>
   </g>
   <g id="patch_11">
    <path d="M 299.193345 66.946687 
L 329.323444 66.946687 
L 329.323444 36.816587 
L 299.193345 36.816587 
z
" clip-path="url(#pcae0d9fa1a)" style="fill: #bb8bff; stroke: #bb8bff; stroke-width: 1.5; stroke-linejoin: miter"/>
   </g>
   <g id="patch_12">
    <path d="M 299.193345 113.300686 
L 329.323444 113.300686 
L 329.323444 83.170587 
L 299.193345 83.170587 
z
" clip-path="url(#pcae0d9fa1a)" style="fill: #bb8bff; stroke: #bb8bff; stroke-width: 1.5; stroke-linejoin: miter"/>
   </g>
   <g id="patch_13">
    <path d="M 345.547344 66.946687 
L 375.677444 66.946687 
L 375.677444 36.816587 
L 345.547344 36.816587 
z
" clip-path="url(#pcae0d9fa1a)" style="fill: #bb8bff; stroke: #bb8bff; stroke-width: 1.5; stroke-linejoin: miter"/>
   </g>
   <g id="patch_14">
    <path d="M 345.547344 113.300686 
L 375.677444 113.300686 
L 375.677444 83.170587 
L 345.547344 83.170587 
z
" clip-path="url(#pcae0d9fa1a)" style="fill: #bb8bff; stroke: #bb8bff; stroke-width: 1.5; stroke-linejoin: miter"/>
   </g>
   <g id="patch_15">
    <path d="M 391.901343 113.300686 
L 422.031443 113.300686 
L 422.031443 83.170587 
L 391.901343 83.170587 
z
" clip-path="url(#pcae0d9fa1a)" style="fill: #bb8bff; stroke: #bb8bff; stroke-width: 1.5; stroke-linejoin: miter"/>
   </g>
   <g id="patch_16">
    <path d="M 438.255343 113.300686 
L 468.385442 113.300686 
L 468.385442 83.170587 
L 438.255343 83.170587 
z
" clip-path="url(#pcae0d9fa1a)" style="fill: #bb8bff; stroke: #bb8bff; stroke-width: 1.5; stroke-linejoin: miter"/>
   </g>
   <g id="text_2">
    <g clip-path="url(#pcae0d9fa1a)">
     <!-- ${q}_{1}\;\mapsto\;{87}$ -->
     <g transform="translate(27.102937 56.332614) scale(0.1625 -0.1625)">
      <defs>
       <path id="DejaVuSans-Oblique-71" d="M 2669 525 
Q 2438 222 2123 65 
Q 1809 -91 1428 -91 
Q 897 -91 595 267 
Q 294 625 294 1253 
Q 294 1759 480 2231 
Q 666 2703 1013 3078 
Q 1238 3322 1530 3453 
Q 1822 3584 2144 3584 
Q 2531 3584 2781 3431 
Q 3031 3278 3144 2969 
L 3244 3494 
L 3822 3494 
L 2888 -1319 
L 2309 -1319 
L 2669 525 
z
M 891 1338 
Q 891 875 1084 633 
Q 1278 391 1644 391 
Q 2188 391 2572 911 
Q 2956 1431 2956 2175 
Q 2956 2625 2757 2864 
Q 2559 3103 2188 3103 
Q 1916 3103 1684 2976 
Q 1453 2850 1281 2606 
Q 1100 2350 995 2006 
Q 891 1663 891 1338 
z
" transform="scale(0.015625)"/>
       <path id="DejaVuSans-31" d="M 794 531 
L 1825 531 
L 1825 4091 
L 703 3866 
L 703 4441 
L 1819 4666 
L 2450 4666 
L 2450 531 
L 3481 531 
L 3481 0 
L 794 0 
L 794 531 
z
" transform="scale(0.015625)"/>
       <path id="DejaVuSans-21a6" d="M 4175 1741 
L 897 1741 
L 897 663 
L 366 663 
L 366 3350 
L 897 3350 
L 897 2272 
L 4175 2272 
L 3447 3000 
L 3822 3375 
L 5050 2147 
L 5050 1866 
L 3822 638 
L 3447 1013 
L 4175 1741 
z
" transform="scale(0.015625)"/>
       <path id="DejaVuSans-38" d="M 2034 2216 
Q 1584 2216 1326 1975 
Q 1069 1734 1069 1313 
Q 1069 891 1326 650 
Q 1584 409 2034 409 
Q 2484 409 2743 651 
Q 3003 894 3003 1313 
Q 3003 1734 2745 1975 
Q 2488 2216 2034 2216 
z
M 1403 2484 
Q 997 2584 770 2862 
Q 544 3141 544 3541 
Q 544 4100 942 4425 
Q 1341 4750 2034 4750 
Q 2731 4750 3128 4425 
Q 3525 4100 3525 3541 
Q 3525 3141 3298 2862 
Q 3072 2584 2669 2484 
Q 3125 2378 3379 2068 
Q 3634 1759 3634 1313 
Q 3634 634 3220 271 
Q 2806 -91 2034 -91 
Q 1263 -91 848 271 
Q 434 634 434 1313 
Q 434 1759 690 2068 
Q 947 2378 1403 2484 
z
M 1172 3481 
Q 1172 3119 1398 2916 
Q 1625 2713 2034 2713 
Q 2441 2713 2670 2916 
Q 2900 3119 2900 3481 
Q 2900 3844 2670 4047 
Q 2441 4250 2034 4250 
Q 1625 4250 1398 4047 
Q 1172 3844 1172 3481 
z
" transform="scale(0.015625)"/>
       <path id="DejaVuSans-37" d="M 525 4666 
L 3525 4666 
L 3525 4397 
L 1831 0 
L 1172 0 
L 2766 4134 
L 525 4134 
L 525 4666 
z
" transform="scale(0.015625)"/>
      </defs>
      <use xlink:href="#DejaVuSans-Oblique-71" transform="translate(0 0.78125)"/>
      <use xlink:href="#DejaVuSans-31" transform="translate(63.476562 -15.625) scale(0.7)"/>
      <use xlink:href="#DejaVuSans-21a6" transform="translate(157.288628 0.78125)"/>
      <use xlink:href="#DejaVuSans-38" transform="translate(287.619248 0.78125)"/>
      <use xlink:href="#DejaVuSans-37" transform="translate(351.242295 0.78125)"/>
     </g>
    </g>
   </g>
   <g id="text_3">
    <g clip-path="url(#pcae0d9fa1a)">
     <!-- ${q}_{0}\;\mapsto\;{88}$ -->
     <g transform="translate(27.102937 102.686613) scale(0.1625 -0.1625)">
      <defs>
       <path id="DejaVuSans-30" d="M 2034 4250 
Q 1547 4250 1301 3770 
Q 1056 3291 1056 2328 
Q 1056 1369 1301 889 
Q 1547 409 2034 409 
Q 2525 409 2770 889 
Q 3016 1369 3016 2328 
Q 3016 3291 2770 3770 
Q 2525 4250 2034 4250 
z
M 2034 4750 
Q 2819 4750 3233 4129 
Q 3647 3509 3647 2328 
Q 3647 1150 3233 529 
Q 2819 -91 2034 -91 
Q 1250 -91 836 529 
Q 422 1150 422 2328 
Q 422 3509 836 4129 
Q 1250 4750 2034 4750 
z
" transform="scale(0.015625)"/>
      </defs>
      <use xlink:href="#DejaVuSans-Oblique-71" transform="translate(0 0.78125)"/>
      <use xlink:href="#DejaVuSans-30" transform="translate(63.476562 -15.625) scale(0.7)"/>
      <use xlink:href="#DejaVuSans-21a6" transform="translate(157.288628 0.78125)"/>
      <use xlink:href="#DejaVuSans-38" transform="translate(287.619248 0.78125)"/>
      <use xlink:href="#DejaVuSans-38" transform="translate(351.242295 0.78125)"/>
     </g>
    </g>
   </g>
   <g id="text_4">
    <g clip-path="url(#pcae0d9fa1a)">
     <!-- $\pi$/2 -->
     <g transform="translate(122.682397 63.128167) scale(0.08 -0.08)">
      <defs>
       <path id="DejaVuSans-32" d="M 1228 531 
L 3431 531 
L 3431 0 
L 469 0 
L 469 531 
Q 828 903 1448 1529 
Q 2069 2156 2228 2338 
Q 2531 2678 2651 2914 
Q 2772 3150 2772 3378 
Q 2772 3750 2511 3984 
Q 2250 4219 1831 4219 
Q 1534 4219 1204 4116 
Q 875 4013 500 3803 
L 500 4441 
Q 881 4594 1212 4672 
Q 1544 4750 1819 4750 
Q 2544 4750 2975 4387 
Q 3406 4025 3406 3419 
Q 3406 3131 3298 2873 
Q 3191 2616 2906 2266 
Q 2828 2175 2409 1742 
Q 1991 1309 1228 531 
z
" transform="scale(0.015625)"/>
      </defs>
      <use xlink:href="#DejaVuSans-Oblique-3c0" transform="translate(0 0.78125)"/>
      <use xlink:href="#DejaVuSans-2f" transform="translate(60.205078 0.78125)"/>
      <use xlink:href="#DejaVuSans-32" transform="translate(90.271484 0.78125)"/>
     </g>
    </g>
   </g>
   <g id="text_5">
    <g clip-path="url(#pcae0d9fa1a)">
     <!-- $\mathrm{R_Z}$ -->
     <g transform="translate(120.912397 50.94931) scale(0.13 -0.13)">
      <defs>
       <path id="DejaVuSans-52" d="M 2841 2188 
Q 3044 2119 3236 1894 
Q 3428 1669 3622 1275 
L 4263 0 
L 3584 0 
L 2988 1197 
Q 2756 1666 2539 1819 
Q 2322 1972 1947 1972 
L 1259 1972 
L 1259 0 
L 628 0 
L 628 4666 
L 2053 4666 
Q 2853 4666 3247 4331 
Q 3641 3997 3641 3322 
Q 3641 2881 3436 2590 
Q 3231 2300 2841 2188 
z
M 1259 4147 
L 1259 2491 
L 2053 2491 
Q 2509 2491 2742 2702 
Q 2975 2913 2975 3322 
Q 2975 3731 2742 3939 
Q 2509 4147 2053 4147 
L 1259 4147 
z
" transform="scale(0.015625)"/>
       <path id="DejaVuSans-5a" d="M 359 4666 
L 4025 4666 
L 4025 4184 
L 1075 531 
L 4097 531 
L 4097 0 
L 288 0 
L 288 481 
L 3238 4134 
L 359 4134 
L 359 4666 
z
" transform="scale(0.015625)"/>
      </defs>
      <use xlink:href="#DejaVuSans-52" transform="translate(0 0.09375)"/>
      <use xlink:href="#DejaVuSans-5a" transform="translate(70.439453 -16.3125) scale(0.7)"/>
     </g>
    </g>
   </g>
   <g id="text_6">
    <g clip-path="url(#pcae0d9fa1a)">
     <!-- $\pi$/2 -->
     <g transform="translate(122.682397 109.482166) scale(0.08 -0.08)">
      <use xlink:href="#DejaVuSans-Oblique-3c0" transform="translate(0 0.78125)"/>
      <use xlink:href="#DejaVuSans-2f" transform="translate(60.205078 0.78125)"/>
      <use xlink:href="#DejaVuSans-32" transform="translate(90.271484 0.78125)"/>
     </g>
    </g>
   </g>
   <g id="text_7">
    <g clip-path="url(#pcae0d9fa1a)">
     <!-- $\mathrm{R_Z}$ -->
     <g transform="translate(120.912397 97.303309) scale(0.13 -0.13)">
      <use xlink:href="#DejaVuSans-52" transform="translate(0 0.09375)"/>
      <use xlink:href="#DejaVuSans-5a" transform="translate(70.439453 -16.3125) scale(0.7)"/>
     </g>
    </g>
   </g>
   <g id="text_8">
    <g clip-path="url(#pcae0d9fa1a)">
     <!-- $\mathrm{\sqrt{X}}$ -->
     <g transform="translate(165.186396 56.328043) scale(0.13 -0.13)">
      <defs>
       <path id="STIXSizeOneSym-Regular-221a" d="M 6970 9933 
L 3373 -1888 
L 3104 -1888 
L 1626 2918 
Q 1555 3149 1465 3251 
Q 1376 3354 1229 3354 
Q 1011 3354 794 3181 
L 717 3309 
L 1766 4115 
L 1926 4115 
L 3379 -602 
L 3405 -602 
L 6605 9933 
L 6970 9933 
z
" transform="scale(0.015625)"/>
       <path id="DejaVuSans-58" d="M 403 4666 
L 1081 4666 
L 2241 2931 
L 3406 4666 
L 4084 4666 
L 2584 2425 
L 4184 0 
L 3506 0 
L 2194 1984 
L 872 0 
L 191 0 
L 1856 2491 
L 403 4666 
z
" transform="scale(0.015625)"/>
      </defs>
      <use xlink:href="#STIXSizeOneSym-Regular-221a" transform="translate(0 17.09375) scale(0.563912)"/>
      <use xlink:href="#DejaVuSans-58" transform="translate(72.088364 0.84375)"/>
      <path d="M 59.588364 97.5 
L 59.588364 103.75 
L 153.094223 103.75 
L 153.094223 97.5 
L 59.588364 97.5 
z
"/>
     </g>
    </g>
   </g>
   <g id="text_9">
    <g clip-path="url(#pcae0d9fa1a)">
     <!-- $\mathrm{\sqrt{X}}$ -->
     <g transform="translate(165.186396 102.682043) scale(0.13 -0.13)">
      <use xlink:href="#STIXSizeOneSym-Regular-221a" transform="translate(0 17.09375) scale(0.563912)"/>
      <use xlink:href="#DejaVuSans-58" transform="translate(72.088364 0.84375)"/>
      <path d="M 59.588364 97.5 
L 59.588364 103.75 
L 153.094223 103.75 
L 153.094223 97.5 
L 59.588364 97.5 
z
"/>
     </g>
    </g>
   </g>
   <g id="text_10">
    <g clip-path="url(#pcae0d9fa1a)">
     <!-- $\pi$ -->
     <g transform="translate(219.110396 63.128167) scale(0.08 -0.08)">
      <use xlink:href="#DejaVuSans-Oblique-3c0" transform="translate(0 0.3125)"/>
     </g>
    </g>
   </g>
   <g id="text_11">
    <g clip-path="url(#pcae0d9fa1a)">
     <!-- $\mathrm{R_Z}$ -->
     <g transform="translate(213.620396 50.94931) scale(0.13 -0.13)">
      <use xlink:href="#DejaVuSans-52" transform="translate(0 0.09375)"/>
      <use xlink:href="#DejaVuSans-5a" transform="translate(70.439453 -16.3125) scale(0.7)"/>
     </g>
    </g>
   </g>
   <g id="text_12">
    <g clip-path="url(#pcae0d9fa1a)">
     <!-- $\pi$/2 -->
     <g transform="translate(215.390396 109.482166) scale(0.08 -0.08)">
      <use xlink:href="#DejaVuSans-Oblique-3c0" transform="translate(0 0.78125)"/>
      <use xlink:href="#DejaVuSans-2f" transform="translate(60.205078 0.78125)"/>
      <use xlink:href="#DejaVuSans-32" transform="translate(90.271484 0.78125)"/>
     </g>
    </g>
   </g>
   <g id="text_13">
    <g clip-path="url(#pcae0d9fa1a)">
     <!-- $\mathrm{R_Z}$ -->
     <g transform="translate(213.620396 97.303309) scale(0.13 -0.13)">
      <use xlink:href="#DejaVuSans-52" transform="translate(0 0.09375)"/>
      <use xlink:href="#DejaVuSans-5a" transform="translate(70.439453 -16.3125) scale(0.7)"/>
     </g>
    </g>
   </g>
   <g id="text_14">
    <g clip-path="url(#pcae0d9fa1a)">
     <!-- $\mathrm{\sqrt{X}}$ -->
     <g transform="translate(304.248394 56.328043) scale(0.13 -0.13)">
      <use xlink:href="#STIXSizeOneSym-Regular-221a" transform="translate(0 17.09375) scale(0.563912)"/>
      <use xlink:href="#DejaVuSans-58" transform="translate(72.088364 0.84375)"/>
      <path d="M 59.588364 97.5 
L 59.588364 103.75 
L 153.094223 103.75 
L 153.094223 97.5 
L 59.588364 97.5 
z
"/>
     </g>
    </g>
   </g>
   <g id="text_15">
    <g clip-path="url(#pcae0d9fa1a)">
     <!-- $\mathrm{\sqrt{X}}$ -->
     <g transform="translate(304.248394 102.682043) scale(0.13 -0.13)">
      <use xlink:href="#STIXSizeOneSym-Regular-221a" transform="translate(0 17.09375) scale(0.563912)"/>
      <use xlink:href="#DejaVuSans-58" transform="translate(72.088364 0.84375)"/>
      <path d="M 59.588364 97.5 
L 59.588364 103.75 
L 153.094223 103.75 
L 153.094223 97.5 
L 59.588364 97.5 
z
"/>
     </g>
    </g>
   </g>
   <g id="text_16">
    <g clip-path="url(#pcae0d9fa1a)">
     <!-- $\pi$/2 -->
     <g transform="translate(354.452394 63.128167) scale(0.08 -0.08)">
      <use xlink:href="#DejaVuSans-Oblique-3c0" transform="translate(0 0.78125)"/>
      <use xlink:href="#DejaVuSans-2f" transform="translate(60.205078 0.78125)"/>
      <use xlink:href="#DejaVuSans-32" transform="translate(90.271484 0.78125)"/>
     </g>
    </g>
   </g>
   <g id="text_17">
    <g clip-path="url(#pcae0d9fa1a)">
     <!-- $\mathrm{R_Z}$ -->
     <g transform="translate(352.682394 50.94931) scale(0.13 -0.13)">
      <use xlink:href="#DejaVuSans-52" transform="translate(0 0.09375)"/>
      <use xlink:href="#DejaVuSans-5a" transform="translate(70.439453 -16.3125) scale(0.7)"/>
     </g>
    </g>
   </g>
   <g id="text_18">
    <g clip-path="url(#pcae0d9fa1a)">
     <!-- $\theta$ + $\pi$ -->
     <g transform="translate(349.852394 109.482166) scale(0.08 -0.08)">
      <defs>
       <path id="DejaVuSans-Oblique-3b8" d="M 2913 2219 
L 925 2219 
Q 791 1284 928 888 
Q 1100 400 1566 400 
Q 2034 400 2391 891 
Q 2703 1322 2913 2219 
z
M 3009 2750 
Q 3094 3638 2984 3950 
Q 2813 4444 2353 4444 
Q 1875 4444 1525 3956 
Q 1250 3563 1034 2750 
L 3009 2750 
z
M 2444 4913 
Q 3194 4913 3494 4250 
Q 3794 3591 3566 2422 
Q 3341 1256 2781 594 
Q 2225 -72 1475 -72 
Q 722 -72 425 594 
Q 128 1256 353 2422 
Q 581 3591 1134 4250 
Q 1691 4913 2444 4913 
z
" transform="scale(0.015625)"/>
       <path id="DejaVuSans-2b" d="M 2944 4013 
L 2944 2272 
L 4684 2272 
L 4684 1741 
L 2944 1741 
L 2944 0 
L 2419 0 
L 2419 1741 
L 678 1741 
L 678 2272 
L 2419 2272 
L 2419 4013 
L 2944 4013 
z
" transform="scale(0.015625)"/>
      </defs>
      <use xlink:href="#DejaVuSans-Oblique-3b8" transform="translate(0 0.234375)"/>
      <use xlink:href="#DejaVuSans-20" transform="translate(61.181641 0.234375)"/>
      <use xlink:href="#DejaVuSans-2b" transform="translate(92.96875 0.234375)"/>
      <use xlink:href="#DejaVuSans-20" transform="translate(176.757812 0.234375)"/>
      <use xlink:href="#DejaVuSans-Oblique-3c0" transform="translate(208.544922 0.234375)"/>
     </g>
    </g>
   </g>
   <g id="text_19">
    <g clip-path="url(#pcae0d9fa1a)">
     <!-- $\mathrm{R_Z}$ -->
     <g transform="translate(352.682394 97.303309) scale(0.13 -0.13)">
      <use xlink:href="#DejaVuSans-52" transform="translate(0 0.09375)"/>
      <use xlink:href="#DejaVuSans-5a" transform="translate(70.439453 -16.3125) scale(0.7)"/>
     </g>
    </g>
   </g>
   <g id="text_20">
    <g clip-path="url(#pcae0d9fa1a)">
     <!-- $\mathrm{\sqrt{X}}$ -->
     <g transform="translate(396.956393 102.682043) scale(0.13 -0.13)">
      <use xlink:href="#STIXSizeOneSym-Regular-221a" transform="translate(0 17.09375) scale(0.563912)"/>
      <use xlink:href="#DejaVuSans-58" transform="translate(72.088364 0.84375)"/>
      <path d="M 59.588364 97.5 
L 59.588364 103.75 
L 153.094223 103.75 
L 153.094223 97.5 
L 59.588364 97.5 
z
"/>
     </g>
    </g>
   </g>
   <g id="text_21">
    <g clip-path="url(#pcae0d9fa1a)">
     <!-- 3$\pi$ -->
     <g transform="translate(448.360393 109.482166) scale(0.08 -0.08)">
      <defs>
       <path id="DejaVuSans-33" d="M 2597 2516 
Q 3050 2419 3304 2112 
Q 3559 1806 3559 1356 
Q 3559 666 3084 287 
Q 2609 -91 1734 -91 
Q 1441 -91 1130 -33 
Q 819 25 488 141 
L 488 750 
Q 750 597 1062 519 
Q 1375 441 1716 441 
Q 2309 441 2620 675 
Q 2931 909 2931 1356 
Q 2931 1769 2642 2001 
Q 2353 2234 1838 2234 
L 1294 2234 
L 1294 2753 
L 1863 2753 
Q 2328 2753 2575 2939 
Q 2822 3125 2822 3475 
Q 2822 3834 2567 4026 
Q 2313 4219 1838 4219 
Q 1578 4219 1281 4162 
Q 984 4106 628 3988 
L 628 4550 
Q 988 4650 1302 4700 
Q 1616 4750 1894 4750 
Q 2613 4750 3031 4423 
Q 3450 4097 3450 3541 
Q 3450 3153 3228 2886 
Q 3006 2619 2597 2516 
z
" transform="scale(0.015625)"/>
      </defs>
      <use xlink:href="#DejaVuSans-33" transform="translate(0 0.78125)"/>
      <use xlink:href="#DejaVuSans-Oblique-3c0" transform="translate(63.623047 0.78125)"/>
     </g>
    </g>
   </g>
   <g id="text_22">
    <g clip-path="url(#pcae0d9fa1a)">
     <!-- $\mathrm{R_Z}$ -->
     <g transform="translate(445.390393 97.303309) scale(0.13 -0.13)">
      <use xlink:href="#DejaVuSans-52" transform="translate(0 0.09375)"/>
      <use xlink:href="#DejaVuSans-5a" transform="translate(70.439453 -16.3125) scale(0.7)"/>
     </g>
    </g>
   </g>
  </g>
 </g>
 <defs>
  <clipPath id="pcae0d9fa1a">
   <rect x="7.2" y="14.798437" width="476.714032" height="111.249599"/>
  </clipPath>
 </defs>
</svg>
